<svg width="172" height="132" viewBox="0 0 172 132" fill="none" xmlns="http://www.w3.org/2000/svg">
<g clip-path="url(#clip0_46_2036)">
<path opacity="0.1" d="M78.8154 116.558C118.291 116.558 150.293 114.076 150.293 111.014C150.293 107.953 118.291 105.471 78.8154 105.471C39.3394 105.471 7.33789 107.953 7.33789 111.014C7.33789 114.076 39.3394 116.558 78.8154 116.558Z" fill="#7052CC"/>
<g opacity="0.1">
<path opacity="0.1" d="M142.123 79.4274C141.695 78.1323 139.963 77.536 138.254 78.097C138.008 78.1772 137.77 78.2801 137.543 78.4045C137.434 78.3742 137.321 78.3473 137.207 78.3272C137.3 77.9546 137.336 77.57 137.312 77.1866C137.902 76.7928 138.38 76.2542 138.701 75.6227C139.022 74.9911 139.175 74.2877 139.146 73.5801C139.733 73.1851 140.21 72.6461 140.53 72.0147C140.85 71.3833 141.002 70.6805 140.972 69.9736C141.564 69.5837 142.042 69.0433 142.356 68.408C143.18 66.7786 142.839 64.9476 141.593 64.3177C140.346 63.6878 138.666 64.4991 137.842 66.1285C137.516 66.7574 137.363 67.4619 137.4 68.1695C136.812 68.5644 136.336 69.1034 136.016 69.7348C135.696 70.3662 135.544 71.069 135.573 71.776C134.986 72.171 134.509 72.7099 134.189 73.3413C133.87 73.9727 133.717 74.6755 133.747 75.3825C133.158 75.777 132.68 76.3159 132.359 76.9476C132.038 77.5794 131.885 78.2829 131.914 78.9907C131.322 79.3806 130.844 79.921 130.53 80.5563C130.375 80.8625 130.257 81.1862 130.18 81.5205C129.973 81.2189 129.721 80.9509 129.433 80.7259C129.4 80.4694 129.344 80.2164 129.265 79.97C128.703 78.2617 127.196 77.2202 125.901 77.6469C124.606 78.0735 124.008 79.802 124.569 81.5104C124.799 82.2429 125.242 82.8907 125.841 83.3716C125.874 83.6281 125.93 83.8812 126.009 84.1275C126.335 85.1186 126.979 85.8846 127.716 86.2692C127.651 86.4832 127.604 86.7024 127.576 86.9244C126.882 87.5916 126.435 88.4747 126.308 89.4289C125.613 90.0965 125.166 90.9803 125.04 91.9352C124.696 92.2653 124.412 92.6523 124.199 93.0791C123.374 94.7085 123.715 96.5412 124.961 97.1694C126.207 97.7977 127.888 96.9897 128.713 95.3586C128.931 94.9333 129.073 94.4735 129.134 93.9997C129.828 93.3324 130.275 92.4493 130.402 91.4951C131.097 90.8276 131.544 89.9438 131.67 88.9888C132.36 88.32 132.802 87.4369 132.923 86.4843C133.621 85.8168 134.069 84.9314 134.194 83.9747C134.408 83.772 134.6 83.5467 134.765 83.3027C135.452 83.4436 136.164 83.399 136.828 83.1734C137.074 83.0932 137.312 82.9903 137.54 82.866C138.283 83.0619 139.069 83.0339 139.797 82.7854C141.5 82.2293 142.548 80.7242 142.123 79.4274Z" fill="#3F3D56"/>
<g opacity="0.1">
<path opacity="0.1" d="M139.107 74.3209C138.931 74.4942 138.737 74.649 138.528 74.7828C138.555 75.2623 138.492 75.7425 138.342 76.1989C138.474 76.0161 138.592 75.8235 138.695 75.6227C138.904 75.2145 139.043 74.7746 139.107 74.3209Z" fill="black"/>
<path opacity="0.1" d="M140.933 70.7144C140.757 70.8877 140.563 71.0425 140.355 71.1763C140.381 71.6558 140.318 72.136 140.168 72.5924C140.301 72.4093 140.419 72.2161 140.521 72.0145C140.729 71.6066 140.868 71.1674 140.933 70.7144Z" fill="black"/>
<path opacity="0.1" d="M136.791 69.3722C136.776 69.1249 136.785 68.8767 136.82 68.6314C136.493 68.9529 136.221 69.3257 136.016 69.735C135.914 69.9369 135.829 70.1464 135.76 70.3616C136.038 69.97 136.388 69.6344 136.791 69.3722Z" fill="black"/>
<path opacity="0.1" d="M125.198 91.1978C125.345 90.9932 125.511 90.8031 125.694 90.63C125.723 90.4021 125.772 90.1772 125.841 89.9581C125.694 90.1542 125.566 90.3628 125.456 90.5813C125.354 90.7798 125.268 90.9859 125.198 91.1978Z" fill="black"/>
<path opacity="0.1" d="M126.466 88.6949C126.613 88.4903 126.779 88.3002 126.962 88.1271C126.99 87.9051 127.037 87.6859 127.102 87.472C126.962 87.6625 126.839 87.8642 126.732 88.075C126.628 88.2747 126.539 88.4819 126.466 88.6949Z" fill="black"/>
<path opacity="0.1" d="M137.279 77.9274C137.103 78.1007 136.91 78.255 136.702 78.3876C136.725 78.771 136.689 79.1556 136.596 79.5282C136.709 79.5478 136.822 79.5736 136.932 79.6055C137.159 79.4812 137.398 79.3782 137.644 79.2981C139.356 78.737 141.086 79.3334 141.512 80.6285C141.618 80.954 141.636 81.3015 141.566 81.6364C142.129 80.9745 142.363 80.1682 142.121 79.4291C141.694 78.134 139.961 77.5377 138.253 78.0987C138.006 78.1789 137.768 78.2818 137.541 78.4061C137.432 78.3759 137.319 78.349 137.205 78.3289C137.237 78.1945 137.26 78.0618 137.279 77.9274Z" fill="black"/>
<path opacity="0.1" d="M124.573 92.4559C124.426 92.6521 124.297 92.8606 124.187 93.0791C124.085 93.2817 123.999 93.4917 123.928 93.7074C124.079 93.5018 124.248 93.3106 124.433 93.1362C124.459 92.9057 124.506 92.678 124.573 92.4559Z" fill="black"/>
<path opacity="0.1" d="M134.956 72.9787C134.941 72.7314 134.95 72.4833 134.985 72.2379C134.658 72.5594 134.387 72.9322 134.181 73.3415C134.079 73.5434 133.994 73.7529 133.925 73.9681C134.204 73.5765 134.553 73.2409 134.956 72.9787Z" fill="black"/>
<path opacity="0.1" d="M132.317 87.687C132.284 87.9369 132.228 88.1832 132.149 88.4227C132.281 88.2392 132.398 88.0461 132.501 87.8449C132.611 87.6291 132.703 87.4043 132.775 87.173C132.637 87.3569 132.484 87.5288 132.317 87.687Z" fill="black"/>
<path opacity="0.1" d="M129.781 92.6961C129.748 92.9461 129.692 93.1924 129.613 93.4319C129.746 93.2488 129.864 93.0556 129.966 92.854C130.076 92.6379 130.167 92.4132 130.24 92.1821C130.103 92.3665 129.949 92.5385 129.781 92.6961Z" fill="black"/>
<path opacity="0.1" d="M131.049 90.1899C131.016 90.4399 130.96 90.6862 130.881 90.9257C131.015 90.7457 131.135 90.5559 131.241 90.3579C131.351 90.1421 131.443 89.9173 131.515 89.686C131.374 89.8667 131.218 90.0353 131.049 90.1899Z" fill="black"/>
<path opacity="0.1" d="M133.585 85.1825C133.552 85.4318 133.496 85.6776 133.417 85.9165C133.549 85.7338 133.667 85.5412 133.769 85.3404C133.88 85.1208 133.972 84.8921 134.045 84.6567C133.908 84.8453 133.754 85.0212 133.585 85.1825Z" fill="black"/>
<path opacity="0.1" d="M125.282 78.8479C126.581 78.423 128.088 79.4628 128.646 81.1711C128.725 81.4181 128.781 81.6716 128.814 81.9287C129.102 82.1537 129.354 82.4217 129.561 82.7232C129.638 82.3884 129.756 82.0642 129.911 81.7574C129.97 81.6431 130.034 81.5339 130.099 81.4214C129.908 81.1576 129.682 80.9213 129.426 80.7192C129.393 80.4627 129.337 80.2097 129.258 79.9633C128.696 78.255 127.19 77.2135 125.895 77.6402C125.155 77.8821 124.643 78.5489 124.445 79.3922C124.672 79.1418 124.961 78.9543 125.282 78.8479Z" fill="black"/>
<path opacity="0.1" d="M131.303 80.1917C131.288 79.945 131.298 79.6974 131.333 79.4526C131.006 79.7736 130.734 80.1465 130.528 80.5563C130.426 80.7574 130.341 80.9664 130.272 81.1811C130.551 80.7902 130.901 80.4547 131.303 80.1917Z" fill="black"/>
<path opacity="0.1" d="M133.13 76.5835C133.115 76.3368 133.125 76.0891 133.16 75.8444C132.832 76.1644 132.56 76.5369 132.354 76.9464C132.253 77.1482 132.167 77.3577 132.099 77.5729C132.377 77.1814 132.727 76.8457 133.13 76.5835Z" fill="black"/>
<path opacity="0.1" d="M128.513 95.2007C128.48 95.4512 128.424 95.6981 128.345 95.9382C128.621 95.5558 128.833 95.1308 128.972 94.68C128.835 94.8667 128.681 95.0409 128.513 95.2007Z" fill="black"/>
</g>
<path opacity="0.1" d="M144.615 62.7606C145.208 62.3712 145.686 61.8307 145.999 61.195C146.825 59.5656 146.483 57.7329 145.237 57.103C143.991 56.4731 142.311 57.2844 141.485 58.9155C141.158 59.546 141.006 60.2524 141.044 60.9615C140.457 61.3565 139.98 61.8954 139.66 62.5268C139.34 63.1583 139.188 63.861 139.218 64.568C138.625 64.957 138.147 65.4976 137.834 66.1336C137.733 66.333 137.648 66.5403 137.58 66.7534C138.019 66.1184 138.656 65.646 139.391 65.4096C139.475 65.6683 139.609 65.9079 139.786 66.1145C139.963 66.321 140.18 66.4905 140.423 66.613C140.666 66.7354 140.931 66.8085 141.202 66.828C141.474 66.8475 141.747 66.813 142.005 66.7266C142.253 67.4569 142.253 68.2488 142.005 68.9792C142.136 68.7982 142.253 68.6072 142.355 68.408C142.681 67.779 142.833 67.0744 142.795 66.3671C143.384 65.9728 143.861 65.434 144.181 64.8024C144.5 64.1708 144.652 63.4677 144.622 62.7606H144.615Z" fill="#3F3D56"/>
<path opacity="0.1" d="M164.689 39.6398C165.196 39.4035 165.686 39.1325 166.156 38.8285L160.718 34.8608L167.109 38.1482C168.402 37.1223 169.472 35.8437 170.253 34.3905C171.033 32.9374 171.509 31.3403 171.65 29.6971L160.789 29.808L171.674 27.9904C171.561 26.3457 171.113 24.7412 170.357 23.2757C169.601 21.8101 168.553 20.5144 167.278 19.4682C166.002 18.4219 164.526 17.6472 162.939 17.1916C161.353 16.7359 159.69 16.6091 158.053 16.8187C156.416 17.0284 154.839 17.5701 153.419 18.4107C151.999 19.2513 150.766 20.3729 149.796 21.7068C148.826 23.0406 148.139 24.5585 147.777 26.1671C147.416 27.7757 147.388 29.4412 147.694 31.0611C146.905 31.4278 146.157 31.8783 145.464 32.405L151.14 40.2882L144.326 33.3876C142.887 34.7982 141.824 36.5446 141.232 38.469C140.639 40.3934 140.537 42.4349 140.933 44.4088C138.875 45.3685 137.128 46.8873 135.893 48.7916C134.657 50.696 133.983 52.909 133.947 55.1778C133.912 57.4467 134.516 59.6798 135.69 61.622C136.865 63.5643 138.563 65.1372 140.59 66.1612C142.618 67.1852 144.893 67.6189 147.155 67.4127C149.418 67.2066 151.576 66.3688 153.385 64.9953C155.193 63.6218 156.578 61.7678 157.382 59.6454C158.185 57.5229 158.374 55.2174 157.928 52.9925C160.392 51.8473 162.398 49.9077 163.624 47.4858C164.85 45.0639 165.226 42.3004 164.689 39.6398Z" fill="#7052CC"/>
<path opacity="0.1" d="M142.005 36.5624C140.774 38.9832 140.398 41.7478 140.937 44.4088C138.878 45.3685 137.131 46.8873 135.896 48.7916C134.661 50.696 133.986 52.909 133.951 55.1778C133.915 57.4467 134.519 59.6798 135.694 61.622C136.868 63.5643 138.566 65.1373 140.594 66.1612C142.621 67.1852 144.896 67.6189 147.159 67.4127C149.421 67.2066 151.58 66.3689 153.388 64.9953C155.197 63.6218 156.582 61.7679 157.385 59.6454C158.188 57.5229 158.378 55.2174 157.932 52.9925C160.308 51.8906 142.614 35.3513 142.005 36.5624Z" fill="black"/>
<path opacity="0.1" d="M155.651 19.0506C156.644 19.0506 157.449 18.2466 157.449 17.2549C157.449 16.2631 156.644 15.4592 155.651 15.4592C154.658 15.4592 153.853 16.2631 153.853 17.2549C153.853 18.2466 154.658 19.0506 155.651 19.0506Z" fill="#7052CC"/>
<path opacity="0.1" d="M166.152 20.2029C167.145 20.2029 167.95 19.399 167.95 18.4072C167.95 17.4155 167.145 16.6115 166.152 16.6115C165.159 16.6115 164.354 17.4155 164.354 18.4072C164.354 19.399 165.159 20.2029 166.152 20.2029Z" fill="#7052CC"/>
<path opacity="0.1" d="M170.202 36.339C171.195 36.339 172 35.5351 172 34.5433C172 33.5516 171.195 32.7476 170.202 32.7476C169.209 32.7476 168.404 33.5516 168.404 34.5433C168.404 35.5351 169.209 36.339 170.202 36.339Z" fill="#7052CC"/>
<path opacity="0.1" d="M164.736 44.397C165.729 44.397 166.534 43.593 166.534 42.6013C166.534 41.6096 165.729 40.8056 164.736 40.8056C163.743 40.8056 162.938 41.6096 162.938 42.6013C162.938 43.593 163.743 44.397 164.736 44.397Z" fill="#7052CC"/>
<path opacity="0.1" d="M157.269 61.1328C158.262 61.1328 159.067 60.3288 159.067 59.3371C159.067 58.3453 158.262 57.5414 157.269 57.5414C156.276 57.5414 155.471 58.3453 155.471 59.3371C155.471 60.3288 156.276 61.1328 157.269 61.1328Z" fill="#7052CC"/>
<path opacity="0.1" d="M157.269 61.1328C158.262 61.1328 159.067 60.3288 159.067 59.3371C159.067 58.3453 158.262 57.5414 157.269 57.5414C156.276 57.5414 155.471 58.3453 155.471 59.3371C155.471 60.3288 156.276 61.1328 157.269 61.1328Z" fill="black"/>
<path opacity="0.1" d="M140.666 42.178C141.659 42.178 142.464 41.374 142.464 40.3823C142.464 39.3906 141.659 38.5866 140.666 38.5866C139.673 38.5866 138.868 39.3906 138.868 40.3823C138.868 41.374 139.673 42.178 140.666 42.178Z" fill="#7052CC"/>
<path opacity="0.1" d="M140.666 42.178C141.659 42.178 142.464 41.374 142.464 40.3823C142.464 39.3906 141.659 38.5866 140.666 38.5866C139.673 38.5866 138.868 39.3906 138.868 40.3823C138.868 41.374 139.673 42.178 140.666 42.178Z" fill="black"/>
<path opacity="0.1" d="M138.749 69.9181C137.553 69.3151 137.191 67.6067 137.889 66.0311C137.852 66.0949 137.817 66.1604 137.783 66.2293C136.958 67.8587 137.299 69.6897 138.545 70.3196C139.791 70.9495 141.472 70.1382 142.296 68.5088C142.331 68.4416 142.361 68.3727 142.391 68.3055C141.535 69.8022 139.943 70.5228 138.749 69.9181Z" fill="black"/>
<path opacity="0.1" d="M136.973 73.4255C135.779 72.8225 135.415 71.1141 136.115 69.5368C136.078 69.6023 136.041 69.6678 136.007 69.735C135.182 71.3644 135.523 73.1971 136.769 73.8253C138.016 74.4536 139.696 73.6456 140.521 72.0145C140.555 71.9473 140.587 71.8801 140.617 71.8112C139.76 73.3079 138.169 74.0286 136.973 73.4255Z" fill="black"/>
<path opacity="0.1" d="M135.197 76.9313C134.003 76.3283 133.639 74.6199 134.339 73.0443C134.302 73.1081 134.265 73.1736 134.231 73.2425C133.405 74.8719 133.749 76.7028 134.995 77.3328C136.241 77.9627 137.92 77.1514 138.745 75.5219C138.779 75.4548 138.811 75.3859 138.841 75.3187C137.985 76.8154 136.392 77.536 135.197 76.9313Z" fill="black"/>
<path opacity="0.1" d="M133.427 80.4471C132.232 79.8441 131.87 78.1357 132.568 76.5601C132.531 76.6239 132.496 76.6894 132.46 76.7566C131.636 78.386 131.978 80.2187 133.224 80.8486C134.47 81.4785 136.15 80.6672 136.974 79.0361C137.01 78.9689 137.04 78.9017 137.07 78.8328C136.209 80.3211 134.616 81.0418 133.427 80.4471Z" fill="black"/>
<path opacity="0.1" d="M131.646 83.9444C130.451 83.3414 130.089 81.633 130.787 80.0574C130.75 80.1212 130.715 80.1867 130.681 80.2556C129.855 81.885 130.197 83.716 131.443 84.3459C132.689 84.9758 134.369 84.1645 135.195 82.5351C135.229 82.4679 135.261 82.399 135.291 82.3318C134.437 83.8285 132.84 84.5491 131.646 83.9444Z" fill="black"/>
<path opacity="0.1" d="M129.87 87.4519C128.676 86.8488 128.313 85.1405 129.013 83.5648C128.976 83.6287 128.939 83.6942 128.905 83.7614C128.079 85.3908 128.421 87.2234 129.669 87.8533C130.917 88.4833 132.587 87.6702 133.427 86.0408C133.461 85.9736 133.493 85.9065 133.523 85.8376C132.657 87.3343 131.073 88.0549 129.87 87.4519Z" fill="black"/>
<path opacity="0.1" d="M128.094 90.9575C126.9 90.3545 126.537 88.6461 127.237 87.0705C127.2 87.136 127.164 87.1998 127.129 87.2687C126.305 88.8981 126.646 90.7291 127.893 91.359C129.139 91.9889 130.819 91.1776 131.643 89.5482C131.678 89.481 131.709 89.4121 131.739 89.3449C130.883 90.8416 129.29 91.5623 128.094 90.9575Z" fill="black"/>
<path opacity="0.1" d="M126.32 94.465C125.124 93.8619 124.763 92.1536 125.461 90.5779C125.424 90.6418 125.388 90.7073 125.355 90.7745C124.529 92.4039 124.87 94.2365 126.116 94.8665C127.363 95.4964 129.043 94.685 129.869 93.054C129.902 92.9868 129.933 92.9196 129.963 92.8507C129.107 94.3474 127.514 95.0613 126.32 94.465Z" fill="black"/>
<path opacity="0.1" d="M125.153 96.7696C123.959 96.1649 123.595 94.4582 124.295 92.8809C124.258 92.9464 124.221 93.0119 124.187 93.0791C123.362 94.7085 123.703 96.5412 124.949 97.1694C126.195 97.7977 127.876 96.9897 128.701 95.3586C128.735 95.2914 128.767 95.2242 128.797 95.1554C127.939 96.6521 126.347 97.3727 125.153 96.7696Z" fill="black"/>
<path opacity="0.1" d="M157.24 81.1627C157.426 80.632 157.539 80.0789 157.577 79.5182C157.7 79.5179 157.822 79.4922 157.936 79.4426C158.049 79.3931 158.15 79.3207 158.234 79.2301C158.318 79.1395 158.382 79.0326 158.423 78.9161C158.464 78.7996 158.48 78.676 158.47 78.5529C158.461 78.4299 158.426 78.3102 158.368 78.2011C158.31 78.0921 158.231 77.9962 158.134 77.9194C158.037 77.8425 157.926 77.7864 157.807 77.7546C157.687 77.7227 157.563 77.7158 157.441 77.7342C157.241 76.825 156.84 75.9717 156.269 75.2363C155.698 74.5009 154.97 73.9019 154.137 73.4827C154.245 73.2702 154.263 73.0237 154.189 72.7975C154.115 72.5713 153.953 72.3839 153.741 72.2766C153.528 72.1692 153.281 72.1507 153.055 72.225C152.828 72.2994 152.64 72.4605 152.533 72.673C152.494 72.7485 152.467 72.8295 152.452 72.9132C151.465 72.7296 150.449 72.7839 149.487 73.0717C148.526 73.3595 147.647 73.8724 146.924 74.5678C146.378 74.4796 145.823 74.4632 145.273 74.5191L144.544 77.83L144.501 74.6384C143.665 74.8214 142.875 75.1727 142.18 75.6708C141.484 76.169 140.898 76.8035 140.457 77.5357C140.015 78.2678 139.728 79.0822 139.612 79.929C139.497 80.7758 139.555 81.6373 139.784 82.4607C140.013 83.2842 140.408 84.0524 140.944 84.7183C141.481 85.3842 142.147 85.9339 142.904 86.3338C143.66 86.7336 144.49 86.9753 145.343 87.0439C146.196 87.1125 147.054 87.0067 147.864 86.7329C147.951 86.8891 148.083 87.0156 148.243 87.0957C148.407 87.1793 148.594 87.2101 148.777 87.1839C148.959 87.1578 149.13 87.076 149.264 86.9496C149.399 86.8233 149.491 86.6585 149.529 86.4778C149.566 86.2972 149.547 86.1094 149.474 85.94C149.761 85.7433 150.031 85.523 150.281 85.2816C151.594 85.4948 152.941 85.2873 154.128 84.6889C155.316 84.0905 156.284 83.1319 156.892 81.9505L153.503 81.3811L157.24 81.1627Z" fill="#7052CC"/>
<g opacity="0.1">
<path opacity="0.1" d="M152.005 82.7703C150.753 81.1207 149.987 79.1671 149.104 77.2925C148.749 76.523 148.352 75.7738 147.915 75.0482L147.252 74.2772C147.141 74.3713 147.03 74.4687 146.916 74.5712C146.37 74.483 145.814 74.4666 145.264 74.5225L144.536 77.8334L144.492 74.6417C143.656 74.8247 142.866 75.176 142.171 75.6742C141.476 76.1724 140.89 76.8069 140.448 77.5391C140.007 78.2712 139.719 79.0856 139.604 79.9324C139.488 80.7792 139.547 81.6406 139.776 82.4641C140.005 83.2876 140.399 84.0558 140.936 84.7217C141.472 85.3876 142.139 85.9373 142.895 86.3372C143.651 86.737 144.481 86.9786 145.334 87.0473C146.187 87.1159 147.045 87.0101 147.856 86.7363C147.942 86.8925 148.074 87.019 148.234 87.0991C148.399 87.1827 148.585 87.2135 148.768 87.1873C148.951 87.1612 149.121 87.0793 149.256 86.953C149.39 86.8266 149.483 86.6619 149.52 86.4812C149.558 86.3006 149.538 86.1127 149.465 85.9434C149.752 85.7466 150.022 85.5264 150.272 85.2849C151.558 85.4927 152.876 85.2979 154.046 84.7272C153.265 84.1883 152.576 83.5276 152.005 82.7703Z" fill="black"/>
</g>
<path opacity="0.1" d="M129.847 75.6815C129.916 75.5445 129.949 75.3921 129.943 75.2388C129.936 75.0855 129.89 74.9364 129.81 74.8058C129.729 74.6751 129.616 74.5674 129.482 74.4928C129.348 74.4182 129.197 74.3792 129.043 74.3796C128.788 73.0297 128.097 71.8005 127.075 70.8806C127.24 70.2393 127.302 69.576 127.26 68.9153L123.955 68.3525L127.164 68.151C127.107 67.85 127.027 67.5536 126.927 67.264C127.052 67.1782 127.154 67.0628 127.223 66.9281C127.304 66.7675 127.335 66.5864 127.312 66.4081C127.289 66.2298 127.212 66.0626 127.093 65.928C126.974 65.7935 126.817 65.6977 126.642 65.6532C126.468 65.6087 126.284 65.6174 126.115 65.6783C125.265 64.4788 124.021 63.6147 122.6 63.2359C121.178 62.8572 119.669 62.9878 118.334 63.6052C116.999 64.2225 115.922 65.2875 115.292 66.6151C114.661 67.9427 114.516 69.449 114.882 70.8722C114.687 70.9543 114.529 71.1033 114.435 71.2922C114.352 71.4549 114.321 71.6388 114.346 71.8194C114.371 72.0001 114.45 72.1689 114.573 72.3034C114.697 72.4379 114.858 72.5316 115.036 72.5721C115.214 72.6127 115.4 72.598 115.57 72.5302C115.892 73.0713 116.294 73.5611 116.762 73.9832C116.422 75.3099 116.524 76.7114 117.055 77.9744L121.486 76.8254L117.534 78.9017C118.233 80.0108 119.261 80.874 120.476 81.3706C121.69 81.8672 123.029 81.9724 124.306 81.6715C125.583 81.3705 126.734 80.6785 127.598 79.6921C128.461 78.7058 128.995 77.4744 129.124 76.1703C129.276 76.1572 129.422 76.1053 129.549 76.0198C129.675 75.9342 129.778 75.8178 129.847 75.6815Z" fill="#7052CC"/>
<path opacity="0.1" d="M129.847 75.6815C129.916 75.5446 129.949 75.3922 129.943 75.2388C129.936 75.0855 129.89 74.9364 129.81 74.8058C129.729 74.6752 129.616 74.5674 129.482 74.4928C129.348 74.4182 129.196 74.3793 129.043 74.3797C128.788 73.0297 128.097 71.8005 127.075 70.8807C127.102 70.7749 127.126 70.6707 127.146 70.5649C127.028 70.6498 126.92 70.746 126.821 70.8521C126.224 71.5056 125.918 72.3841 125.328 73.0443C124.631 73.8237 123.589 74.2302 122.548 74.3394C121.507 74.4486 120.459 74.289 119.431 74.0891C118.58 73.9211 117.717 73.7263 116.855 73.8086C116.771 73.8086 116.686 73.827 116.609 73.8405C116.66 73.8892 116.71 73.9379 116.762 73.9849C116.421 75.3116 116.524 76.7132 117.055 77.9761L121.486 76.8255L117.534 78.9017C118.233 80.0108 119.261 80.874 120.475 81.3707C121.69 81.8673 123.029 81.9725 124.306 81.6715C125.583 81.3706 126.734 80.6785 127.597 79.6922C128.461 78.7058 128.995 77.4745 129.124 76.1704C129.276 76.1572 129.422 76.1054 129.549 76.0198C129.675 75.9343 129.778 75.8178 129.847 75.6815Z" fill="black"/>
</g>
<g opacity="0.1">
<path opacity="0.1" d="M15.0506 85.8778C15.2659 85.2244 16.1388 84.9237 16.9999 85.2059C17.1237 85.2465 17.2436 85.2982 17.3581 85.3605C17.4136 85.3454 17.4708 85.3319 17.5263 85.3218C17.479 85.1342 17.4609 84.9405 17.4724 84.7473C17.1769 84.5477 16.9372 84.2759 16.7762 83.9579C16.6152 83.6398 16.5382 83.2859 16.5525 82.9298C16.2543 82.7338 16.0139 82.4618 15.8562 82.142C15.6919 81.8251 15.6147 81.4704 15.6325 81.1139C15.3346 80.917 15.0943 80.6445 14.9363 80.3244C14.5225 79.5047 14.6907 78.5825 15.3214 78.2633C15.9521 77.9442 16.7964 78.3557 17.2118 79.1755C17.3758 79.493 17.4524 79.8484 17.4338 80.2052C17.7301 80.4036 17.9704 80.6749 18.1315 80.9929C18.2927 81.3109 18.3692 81.665 18.3537 82.021C18.65 82.22 18.8902 82.4916 19.0513 82.8099C19.2123 83.1281 19.2889 83.4823 19.2737 83.8386C19.5701 84.037 19.8104 84.3083 19.9715 84.6263C20.1326 84.9443 20.2091 85.2984 20.1936 85.6544C20.4922 85.8512 20.7331 86.1236 20.8916 86.4439C20.9672 86.5989 21.0237 86.7625 21.0598 86.9311C21.1634 86.7788 21.2899 86.6434 21.4348 86.5296C21.4521 86.4001 21.4814 86.2724 21.5223 86.1483C21.8065 85.2882 22.565 84.7641 23.2192 84.9724C23.8735 85.1807 24.1728 86.0593 23.892 86.9193C23.7759 87.2886 23.5529 87.6154 23.2512 87.8583C23.2337 87.9873 23.2044 88.1144 23.1637 88.238C23.0257 88.6939 22.7182 89.0797 22.3043 89.3164C22.3368 89.4263 22.3604 89.5387 22.375 89.6523C22.5486 89.8188 22.6925 90.0137 22.8005 90.2285C22.9105 90.4429 22.9822 90.6748 23.0124 90.9139C23.1867 91.0802 23.3311 91.275 23.4396 91.49C23.5494 91.7045 23.6211 91.9364 23.6515 92.1754C23.8262 92.342 23.9707 92.5375 24.0786 92.7533C24.4941 93.573 24.3225 94.4969 23.6952 94.8127C23.0679 95.1285 22.2202 94.722 21.8048 93.9006C21.6953 93.686 21.6236 93.4541 21.5929 93.2152C21.2425 92.8795 21.0171 92.4345 20.9538 91.9537C20.6034 91.6179 20.378 91.173 20.3147 90.6921C20.1406 90.5257 19.9961 90.3309 19.8875 90.116C19.7788 89.9011 19.7071 89.6693 19.6756 89.4306C19.502 89.2641 19.3581 89.0693 19.2501 88.8544C19.1401 88.64 19.0684 88.4081 19.0382 88.1691C18.9299 88.0683 18.8335 87.9556 18.7506 87.8331C18.4046 87.9038 18.046 87.8818 17.7113 87.7693C17.5869 87.7279 17.4665 87.6756 17.3514 87.6131C16.9773 87.7123 16.5822 87.6983 16.2161 87.5728C15.3634 87.2889 14.837 86.5313 15.0506 85.8778Z" fill="#3F3D56"/>
<g opacity="0.1">
<path opacity="0.1" d="M16.5693 83.3028C16.6585 83.3906 16.7566 83.4688 16.862 83.5363C16.8477 83.7775 16.8797 84.0193 16.9562 84.2485C16.8886 84.1569 16.8289 84.0597 16.7779 83.9579C16.6727 83.7525 16.6022 83.5312 16.5693 83.3028Z" fill="black"/>
<path opacity="0.1" d="M15.6494 81.4886C15.739 81.5753 15.8371 81.653 15.9421 81.7204C15.9279 81.9622 15.9599 82.2044 16.0362 82.4343C15.8325 82.155 15.6998 81.8305 15.6494 81.4886Z" fill="black"/>
<path opacity="0.1" d="M17.74 80.8116C17.748 80.6872 17.7435 80.5623 17.7266 80.4387C17.891 80.6009 18.0279 80.7887 18.1319 80.9947C18.1827 81.0965 18.2254 81.2021 18.2597 81.3105C18.1195 81.113 17.9432 80.9437 17.74 80.8116Z" fill="black"/>
<path opacity="0.1" d="M23.5758 91.8076C23.5023 91.7046 23.4189 91.6089 23.3269 91.522C23.3116 91.4082 23.2868 91.2958 23.2529 91.186C23.3259 91.2847 23.3906 91.3892 23.4463 91.4985C23.4974 91.598 23.5407 91.7014 23.5758 91.8076Z" fill="black"/>
<path opacity="0.1" d="M22.9316 90.546C22.8581 90.443 22.7747 90.3474 22.6827 90.2605C22.669 90.1466 22.6453 90.0342 22.6121 89.9245C22.7506 90.1119 22.8574 90.3207 22.9282 90.5427L22.9316 90.546Z" fill="black"/>
<path opacity="0.1" d="M17.491 85.1237C17.5793 85.2107 17.6769 85.2879 17.782 85.3538C17.7694 85.5469 17.7875 85.7408 17.8358 85.9283C17.7791 85.9383 17.7229 85.9512 17.6676 85.9669C17.5524 85.905 17.432 85.8532 17.3077 85.8124C16.4466 85.5302 15.5737 85.8309 15.3601 86.4843C15.3066 86.6469 15.2967 86.8206 15.3315 86.9882C15.1932 86.8429 15.0948 86.6642 15.0458 86.4697C14.9969 86.2752 14.9992 86.0713 15.0524 85.8779C15.2676 85.2244 16.1405 84.9238 17.0016 85.206C17.1254 85.2465 17.2453 85.2983 17.3598 85.3605C17.4153 85.3454 17.4725 85.332 17.528 85.3219C17.5118 85.2566 17.4995 85.1904 17.491 85.1237Z" fill="black"/>
<path opacity="0.1" d="M23.8921 92.4409C23.9655 92.5398 24.0302 92.6449 24.0855 92.755C24.1368 92.8567 24.1801 92.9623 24.215 93.0708C24.1415 92.9673 24.0581 92.8711 23.9661 92.7835C23.9511 92.6674 23.9264 92.5528 23.8921 92.4409Z" fill="black"/>
<path opacity="0.1" d="M18.6599 82.6308C18.668 82.5064 18.6635 82.3815 18.6465 82.2579C18.8113 82.4197 18.9482 82.6076 19.0518 82.8139C19.1026 82.9151 19.1453 83.0202 19.1796 83.1281C19.0394 82.931 18.8631 82.7623 18.6599 82.6308Z" fill="black"/>
<path opacity="0.1" d="M19.9901 90.0387C20.0059 90.1642 20.0335 90.288 20.0725 90.4083C19.9324 90.2164 19.8255 90.0023 19.7563 89.775C19.8262 89.8697 19.9045 89.958 19.9901 90.0387Z" fill="black"/>
<path opacity="0.1" d="M21.2668 92.5618C21.2837 92.6873 21.3119 92.8109 21.3509 92.9314C21.2833 92.8397 21.2236 92.7425 21.1726 92.6408C21.1173 92.5328 21.0711 92.4205 21.0347 92.3048C21.1051 92.3965 21.1827 92.4824 21.2668 92.5618Z" fill="black"/>
<path opacity="0.1" d="M20.6293 91.3003C20.645 91.4258 20.6726 91.5495 20.7117 91.6698C20.6447 91.5778 20.5851 91.4806 20.5334 91.3792C20.4779 91.2714 20.4318 91.159 20.3955 91.0433C20.4657 91.1357 20.5439 91.2217 20.6293 91.3003Z" fill="black"/>
<path opacity="0.1" d="M19.3511 88.7755C19.3667 88.9016 19.3942 89.0259 19.4335 89.1468C19.3697 89.0546 19.3135 88.9574 19.2653 88.8562C19.2089 88.7485 19.1622 88.6361 19.1257 88.5202C19.1929 88.612 19.2684 88.6974 19.3511 88.7755Z" fill="black"/>
<path opacity="0.1" d="M23.5337 85.5856C22.8795 85.3706 22.121 85.8947 21.8385 86.7615C21.7976 86.8856 21.7683 87.0133 21.751 87.1428C21.6056 87.2559 21.4785 87.3907 21.3743 87.5426C21.3353 87.3737 21.276 87.2101 21.1977 87.0554C21.1691 86.9983 21.1372 86.9429 21.1035 86.8875C21.199 86.7551 21.3122 86.6364 21.4399 86.5347C21.4572 86.4052 21.4864 86.2775 21.5273 86.1534C21.8116 85.2933 22.5701 84.7692 23.2243 84.9775C23.4119 85.0495 23.5777 85.1686 23.7056 85.3234C23.8335 85.4783 23.9191 85.6635 23.9542 85.8611C23.8399 85.7349 23.6952 85.6401 23.5337 85.5856Z" fill="black"/>
<path opacity="0.1" d="M20.4998 86.2626C20.5078 86.1381 20.5033 86.0132 20.4863 85.8896C20.6511 86.0515 20.7881 86.2393 20.8916 86.4457C20.9424 86.5474 20.9852 86.653 21.0195 86.7615C20.8798 86.5635 20.7033 86.3942 20.4998 86.2626Z" fill="black"/>
<path opacity="0.1" d="M19.5799 84.4451C19.5878 84.3206 19.5833 84.1957 19.5664 84.0721C19.7304 84.2346 19.8673 84.4223 19.9717 84.6282C20.0225 84.7299 20.0652 84.8355 20.0995 84.944C19.9594 84.7464 19.7831 84.5771 19.5799 84.4451Z" fill="black"/>
<path opacity="0.1" d="M21.9057 93.8233C21.9218 93.9494 21.95 94.0737 21.9898 94.1945C21.9225 94.1021 21.8629 94.0043 21.8115 93.9022C21.7562 93.7943 21.71 93.6819 21.6736 93.5663C21.744 93.658 21.8216 93.7439 21.9057 93.8233Z" fill="black"/>
</g>
<path opacity="0.1" d="M13.7943 77.4806C13.4961 77.2846 13.2558 77.0126 13.098 76.6927C12.6826 75.8713 12.8542 74.9491 13.4815 74.6316C14.1088 74.3141 14.9564 74.7223 15.3719 75.5438C15.5362 75.8606 15.6128 76.2155 15.5939 76.5718C15.8901 76.7708 16.1303 77.0424 16.2914 77.3606C16.4525 77.6788 16.5291 78.0331 16.5138 78.3893C16.8122 78.5856 17.053 78.8575 17.2118 79.1772C17.2622 79.2779 17.305 79.3824 17.3396 79.4896C17.1168 79.172 16.7961 78.936 16.4264 78.8177C16.3852 78.9489 16.3182 79.0706 16.2294 79.1757C16.1406 79.2807 16.0317 79.3671 15.9091 79.4296C15.7865 79.4922 15.6526 79.5297 15.5153 79.54C15.378 79.5503 15.2401 79.5332 15.1095 79.4896C14.9848 79.8573 14.9848 80.2558 15.1095 80.6235C15.0463 80.5321 14.9901 80.436 14.9413 80.3362C14.7769 80.0194 14.6998 79.6646 14.7176 79.3082C14.4217 79.1089 14.1818 78.8372 14.0207 78.519C13.8597 78.2009 13.7829 77.8468 13.7977 77.4906L13.7943 77.4806Z" fill="#3F3D56"/>
<path opacity="0.1" d="M3.6832 65.8329C3.42808 65.7138 3.1814 65.5774 2.94488 65.4247L5.68288 63.4258L2.46387 65.0804C1.81303 64.5635 1.27463 63.9194 0.881634 63.1874C0.488635 62.4555 0.2493 61.6512 0.178277 60.8238L5.65093 60.8809L0.166504 59.9637C0.213727 59.128 0.432739 58.311 0.809896 57.5636C1.18705 56.8162 1.71427 56.1543 2.35871 55.6193C3.00314 55.0843 3.75098 54.6875 4.55564 54.4538C5.3603 54.22 6.20453 54.1543 7.03573 54.2607C7.86694 54.367 8.66731 54.6432 9.38698 55.072C10.1067 55.5008 10.7302 56.0731 11.2188 56.7531C11.7074 57.4331 12.0505 58.2063 12.2268 59.0245C12.4032 59.8428 12.4089 60.6886 12.2437 61.5091C12.6409 61.6927 13.0175 61.9179 13.3671 62.181L10.508 66.1521L13.9406 62.6782C14.665 63.3889 15.2005 64.2687 15.4989 65.238C15.7972 66.2073 15.8489 67.2357 15.6494 68.23C16.6877 68.713 17.569 69.4782 18.1925 70.438C18.816 71.3979 19.1564 72.5135 19.1749 73.6575C19.1934 74.8015 18.8892 75.9275 18.2971 76.9069C17.705 77.8863 16.8489 78.6796 15.8267 79.1959C14.8044 79.7122 13.6574 79.9307 12.5166 79.8266C11.3759 79.7224 10.2875 79.2997 9.37603 78.6068C8.4645 77.9139 7.76661 76.9787 7.36215 75.9083C6.95769 74.8379 6.86299 73.6754 7.08889 72.5538C5.84954 71.9769 4.84011 71.0009 4.22253 69.7825C3.60495 68.5641 3.41502 67.1737 3.6832 65.8346V65.8329Z" fill="#7052CC"/>
<path opacity="0.1" d="M15.1111 64.2841C15.7314 65.5034 15.9211 66.8962 15.6493 68.2366C16.6877 68.7197 17.569 69.4849 18.1925 70.4447C18.8159 71.4045 19.1564 72.5202 19.1749 73.6642C19.1934 74.8081 18.8892 75.9342 18.2971 76.9136C17.705 77.893 16.8488 78.6862 15.8266 79.2025C14.8044 79.7188 13.6573 79.9374 12.5166 79.8332C11.3759 79.7291 10.2875 79.3064 9.37599 78.6135C8.46446 77.9205 7.76657 76.9854 7.36211 75.915C6.95765 74.8446 6.86295 73.6821 7.08885 72.5604C5.88971 72.0044 14.8034 63.6743 15.1111 64.2841Z" fill="black"/>
<path opacity="0.1" d="M8.23585 55.4618C8.7365 55.4618 9.14235 55.0565 9.14235 54.5564C9.14235 54.0564 8.7365 53.651 8.23585 53.651C7.7352 53.651 7.32935 54.0564 7.32935 54.5564C7.32935 55.0565 7.7352 55.4618 8.23585 55.4618Z" fill="#7052CC"/>
<path opacity="0.1" d="M2.94483 56.0431C3.44548 56.0431 3.85133 55.6377 3.85133 55.1376C3.85133 54.6376 3.44548 54.2322 2.94483 54.2322C2.44419 54.2322 2.03833 54.6376 2.03833 55.1376C2.03833 55.6377 2.44419 56.0431 2.94483 56.0431Z" fill="#7052CC"/>
<path opacity="0.1" d="M0.906502 64.1715C1.40715 64.1715 1.813 63.7662 1.813 63.2661C1.813 62.7661 1.40715 62.3607 0.906502 62.3607C0.405855 62.3607 0 62.7661 0 63.2661C0 63.7662 0.405855 64.1715 0.906502 64.1715Z" fill="#7052CC"/>
<path opacity="0.1" d="M3.65968 68.2316C4.16032 68.2316 4.56618 67.8262 4.56618 67.3262C4.56618 66.8261 4.16032 66.4208 3.65968 66.4208C3.15903 66.4208 2.75317 66.8261 2.75317 67.3262C2.75317 67.8262 3.15903 68.2316 3.65968 68.2316Z" fill="#7052CC"/>
<path opacity="0.1" d="M7.42017 76.6625C7.92082 76.6625 8.32668 76.2571 8.32668 75.7571C8.32668 75.257 7.92082 74.8517 7.42017 74.8517C6.91953 74.8517 6.51367 75.257 6.51367 75.7571C6.51367 76.2571 6.91953 76.6625 7.42017 76.6625Z" fill="#7052CC"/>
<path opacity="0.1" d="M7.42017 76.6625C7.92082 76.6625 8.32668 76.2571 8.32668 75.7571C8.32668 75.257 7.92082 74.8517 7.42017 74.8517C6.91953 74.8517 6.51367 75.257 6.51367 75.7571C6.51367 76.2571 6.91953 76.6625 7.42017 76.6625Z" fill="black"/>
<path opacity="0.1" d="M15.7839 67.1129C16.2846 67.1129 16.6904 66.7075 16.6904 66.2075C16.6904 65.7074 16.2846 65.3021 15.7839 65.3021C15.2833 65.3021 14.8774 65.7074 14.8774 66.2075C14.8774 66.7075 15.2833 67.1129 15.7839 67.1129Z" fill="#7052CC"/>
<path opacity="0.1" d="M15.7839 67.1129C16.2846 67.1129 16.6904 66.7075 16.6904 66.2075C16.6904 65.7074 16.2846 65.3021 15.7839 65.3021C15.2833 65.3021 14.8774 65.7074 14.8774 66.2075C14.8774 66.7075 15.2833 67.1129 15.7839 67.1129Z" fill="black"/>
<path opacity="0.1" d="M16.7509 81.0871C17.3529 80.7831 17.5346 79.923 17.1831 79.1285C17.2016 79.1621 17.2201 79.194 17.2369 79.2276C17.6523 80.049 17.4808 80.9712 16.8518 81.2887C16.2228 81.6062 15.3785 81.198 14.9631 80.3766C14.9463 80.343 14.9294 80.3094 14.9143 80.2741C15.3465 81.0283 16.1488 81.3912 16.7509 81.0871Z" fill="black"/>
<path opacity="0.1" d="M17.644 82.8543C18.246 82.5502 18.4294 81.6885 18.0779 80.8956C18.0964 80.9275 18.1149 80.9611 18.1317 80.9947C18.5471 81.8162 18.3755 82.7384 17.7465 83.0559C17.1175 83.3733 16.2733 82.9651 15.8579 82.1437C15.8394 82.1101 15.8242 82.0748 15.8091 82.0413C16.2413 82.7988 17.0452 83.1583 17.644 82.8543Z" fill="black"/>
<path opacity="0.1" d="M18.5387 84.6197C19.1408 84.3157 19.3241 83.4556 18.971 82.6611C18.9911 82.6947 19.008 82.7266 19.0265 82.7619C19.4419 83.5816 19.2686 84.5055 18.6413 84.8213C18.014 85.1371 17.168 84.7306 16.7526 83.9092C16.7341 83.8756 16.719 83.842 16.7039 83.8067C17.1344 84.5609 17.9366 84.9238 18.5387 84.6197Z" fill="black"/>
<path opacity="0.1" d="M19.4335 86.3869C20.0356 86.0828 20.2189 85.2228 19.8657 84.4282C19.8842 84.4601 19.9027 84.4937 19.9195 84.5273C20.3366 85.3487 20.1634 86.271 19.5361 86.5884C18.9088 86.9059 18.0611 86.4977 17.6457 85.6763C17.6289 85.6427 17.6138 85.6074 17.5986 85.5738C18.0292 86.3264 18.8314 86.6909 19.4335 86.3869Z" fill="black"/>
<path opacity="0.1" d="M20.3282 88.1523C20.9303 87.8483 21.112 86.9882 20.7605 86.1954C20.779 86.2273 20.7975 86.2609 20.8143 86.2945C21.2297 87.1159 21.0582 88.0381 20.4308 88.3556C19.8035 88.6731 18.9559 88.2632 18.5405 87.4435C18.5237 87.4082 18.5085 87.3746 18.4917 87.341C18.9239 88.0935 19.7262 88.4564 20.3282 88.1523Z" fill="black"/>
<path opacity="0.1" d="M21.223 89.9195C21.8251 89.6154 22.0068 88.7554 21.6553 87.9608C21.6738 87.9944 21.6923 88.0263 21.7091 88.0599C22.1245 88.8813 21.9529 89.8036 21.3256 90.121C20.6983 90.4385 19.8507 90.0303 19.4352 89.2089C19.4184 89.1753 19.4016 89.1417 19.3865 89.1064C19.8187 89.8539 20.6209 90.2235 21.223 89.9195Z" fill="black"/>
<path opacity="0.1" d="M22.1176 91.6866C22.718 91.3826 22.9013 90.5208 22.5498 89.728C22.5683 89.7599 22.5868 89.7935 22.6036 89.8271C23.019 90.6485 22.8475 91.5707 22.2185 91.8882C21.5895 92.2057 20.7452 91.7958 20.3298 90.9761C20.313 90.9408 20.2961 90.9072 20.281 90.8736C20.7132 91.6261 21.5155 91.9906 22.1176 91.6866Z" fill="black"/>
<path opacity="0.1" d="M23.0107 93.452C23.6127 93.148 23.7961 92.288 23.4429 91.4934C23.4631 91.527 23.4799 91.5589 23.4984 91.5942C23.9138 92.4139 23.7406 93.3378 23.1132 93.6536C22.4859 93.9694 21.64 93.5629 21.2246 92.7415C21.2061 92.7079 21.1909 92.6743 21.1758 92.639C21.608 93.3933 22.4086 93.7561 23.0107 93.452Z" fill="black"/>
<path opacity="0.1" d="M23.6044 94.6128C24.2065 94.3088 24.3881 93.4487 24.0366 92.6542C24.0551 92.6878 24.0736 92.7197 24.0904 92.755C24.5058 93.5747 24.3343 94.4986 23.707 94.8144C23.0796 95.1302 22.232 94.7237 21.8166 93.9023C21.7998 93.8687 21.783 93.8351 21.7678 93.7998C22.195 94.5574 22.9972 94.9169 23.6044 94.6128Z" fill="black"/>
<path opacity="0.1" d="M7.4354 86.7514C7.342 86.4842 7.28542 86.2056 7.26722 85.9232C7.20503 85.923 7.14356 85.91 7.08663 85.885C7.02971 85.8599 6.97856 85.8235 6.93638 85.7778C6.8942 85.7322 6.86189 85.6784 6.84147 85.6197C6.82106 85.561 6.81298 85.4988 6.81773 85.4368C6.82248 85.3749 6.83997 85.3146 6.86909 85.2597C6.89822 85.2048 6.93836 85.1565 6.98701 85.1179C7.03567 85.0792 7.09178 85.0509 7.15186 85.0349C7.21193 85.0188 7.27468 85.0153 7.33618 85.0245C7.43709 84.5667 7.63869 84.137 7.92637 83.7666C8.21404 83.3962 8.58061 83.0943 8.9995 82.8828C8.9453 82.7756 8.93594 82.6514 8.97348 82.5373C9.01101 82.4233 9.09236 82.3288 9.19964 82.2747C9.30691 82.2206 9.43132 82.2112 9.5455 82.2487C9.65967 82.2862 9.75426 82.3675 9.80846 82.4746C9.82814 82.5126 9.84176 82.5534 9.84882 82.5955C10.3465 82.5043 10.8587 82.5329 11.3431 82.679C11.8275 82.825 12.27 83.0844 12.6339 83.4354C12.9119 83.39 13.1947 83.3821 13.4748 83.4119L13.8415 85.0783L13.8499 83.4707C14.2669 83.567 14.66 83.7466 15.0057 83.9987C15.3513 84.2509 15.6422 84.5703 15.8609 84.9377C16.0796 85.3052 16.2216 85.7131 16.2782 86.1368C16.3348 86.5605 16.305 86.9913 16.1904 87.4032C16.0759 87.8151 15.879 88.1995 15.6117 88.5334C15.3444 88.8672 15.0122 89.1436 14.6351 89.3457C14.258 89.5479 13.8438 89.6717 13.4175 89.7097C12.9912 89.7476 12.5616 89.699 12.1546 89.5667C12.1103 89.6448 12.0443 89.7084 11.9646 89.7498C11.8814 89.7917 11.7874 89.8071 11.6952 89.7938C11.6031 89.7806 11.5172 89.7393 11.4493 89.6757C11.3814 89.6121 11.3347 89.5292 11.3155 89.4382C11.2964 89.3471 11.3057 89.2524 11.3423 89.1669C11.1981 89.0663 11.0625 88.954 10.937 88.8309C10.2754 88.938 9.59694 88.8331 8.99874 88.5314C8.40055 88.2296 7.91334 87.7464 7.60695 87.1511L9.314 86.8639L7.4354 86.7514Z" fill="#7052CC"/>
<g opacity="0.1">
<path opacity="0.1" d="M10.0724 87.561C10.703 86.7211 11.0899 85.7469 11.5339 84.8028C11.7117 84.4143 11.9116 84.0363 12.1326 83.6706L12.4689 83.2826C12.5261 83.3313 12.5816 83.38 12.6371 83.4304C12.9151 83.385 13.198 83.377 13.478 83.4069L13.8447 85.0733L13.8497 83.4707C14.2667 83.567 14.6599 83.7466 15.0055 83.9988C15.3511 84.2509 15.6421 84.5703 15.8608 84.9378C16.0795 85.3052 16.2214 85.7131 16.2781 86.1368C16.3347 86.5605 16.3048 86.9913 16.1903 87.4032C16.0757 87.8151 15.8789 88.1996 15.6116 88.5334C15.3443 88.8673 15.012 89.1436 14.6349 89.3457C14.2578 89.5479 13.8436 89.6717 13.4173 89.7097C12.991 89.7477 12.5614 89.699 12.1544 89.5667C12.1102 89.6448 12.0442 89.7084 11.9644 89.7498C11.8813 89.7917 11.7873 89.8071 11.6951 89.7938C11.6029 89.7806 11.5171 89.7394 11.4492 89.6757C11.3812 89.6121 11.3345 89.5292 11.3154 89.4382C11.2963 89.3472 11.3056 89.2525 11.3421 89.1669C11.1979 89.0664 11.0623 88.954 10.9368 88.831C10.289 88.9347 9.62484 88.8368 9.03467 88.5504C9.43162 88.2786 9.78202 87.9445 10.0724 87.561Z" fill="black"/>
</g>
<path opacity="0.1" d="M21.2346 83.9898C21.2077 83.9369 21.1916 83.8792 21.1871 83.82C21.1826 83.7608 21.1898 83.7014 21.2084 83.645C21.227 83.5887 21.2566 83.5365 21.2955 83.4916C21.3343 83.4467 21.3817 83.4099 21.4348 83.3834C21.4983 83.3509 21.5686 83.3342 21.64 83.3347C21.7683 82.6544 22.1162 82.0349 22.6306 81.5709C22.5474 81.2481 22.5162 80.9141 22.5381 80.5815L24.2014 80.3026L22.5851 80.2002C22.6144 80.0485 22.6549 79.8991 22.7062 79.7534C22.6427 79.7111 22.5912 79.6533 22.5566 79.5854C22.5161 79.5045 22.5008 79.4133 22.5126 79.3236C22.5244 79.234 22.5628 79.1499 22.6228 79.0822C22.6829 79.0144 22.7618 78.9662 22.8495 78.9436C22.9372 78.921 23.0296 78.9252 23.1149 78.9554C23.412 78.5334 23.8089 78.1912 24.2703 77.9593C24.8139 77.6839 25.4254 77.5708 26.0316 77.6337C26.6379 77.6966 27.2131 77.9328 27.6883 78.314C28.1635 78.6952 28.5185 79.2052 28.7109 79.7829C28.9032 80.3606 28.9246 80.9814 28.7726 81.5709C28.8516 81.6047 28.9194 81.6604 28.9679 81.7313C29.0164 81.8022 29.0437 81.8855 29.0465 81.9714C29.0493 82.0572 29.0276 82.1421 28.9838 82.2161C28.9401 82.29 28.8761 82.35 28.7995 82.389C28.742 82.4181 28.679 82.4346 28.6146 82.4375C28.5502 82.4404 28.486 82.4296 28.4261 82.4057C28.2638 82.6775 28.0614 82.9233 27.8257 83.1348C27.9981 83.8047 27.9467 84.5125 27.6794 85.1505L25.4543 84.566L27.4439 85.6125C27.1452 86.0886 26.7251 86.4768 26.2267 86.7372C25.7283 86.9977 25.1694 87.1211 24.6075 87.0948C24.0456 87.0685 23.5008 86.8934 23.029 86.5874C22.5572 86.2815 22.1753 85.8557 21.9225 85.3538C21.7465 85.0044 21.6359 84.6258 21.5962 84.2367C21.5199 84.2298 21.4465 84.2035 21.3832 84.1603C21.32 84.1171 21.2688 84.0584 21.2346 83.9898Z" fill="#7052CC"/>
<path opacity="0.1" d="M21.2346 83.9898C21.2077 83.9369 21.1916 83.8792 21.1871 83.82C21.1826 83.7608 21.1898 83.7014 21.2084 83.645C21.227 83.5886 21.2566 83.5365 21.2955 83.4916C21.3343 83.4467 21.3817 83.4099 21.4348 83.3834C21.4983 83.3509 21.5686 83.3342 21.64 83.3347C21.7683 82.6544 22.1162 82.0348 22.6306 81.5709C22.6171 81.5188 22.6053 81.465 22.5952 81.413C22.6556 81.4559 22.7119 81.5043 22.7634 81.5574C23.0645 81.8934 23.2192 82.3285 23.5152 82.6611C23.8861 83.0432 24.3847 83.2758 24.9162 83.3145C25.4426 83.3507 25.9714 83.3082 26.4853 83.1885C26.9091 83.0795 27.3463 83.0314 27.7837 83.0457L27.9081 83.0625L27.8307 83.1348C28.0031 83.8047 27.9517 84.5124 27.6844 85.1505L25.4543 84.5659L27.4439 85.6125C27.1452 86.0886 26.7251 86.4767 26.2267 86.7372C25.7283 86.9977 25.1694 87.1211 24.6075 87.0948C24.0456 87.0685 23.5008 86.8933 23.029 86.5874C22.5572 86.2815 22.1753 85.8557 21.9225 85.3538C21.7465 85.0044 21.6359 84.6258 21.5962 84.2367C21.5199 84.2298 21.4465 84.2035 21.3832 84.1603C21.32 84.117 21.2688 84.0583 21.2346 83.9898Z" fill="black"/>
</g>
<path opacity="0.1" d="M58.25 8.7198C57.5851 8.59373 56.8977 8.66859 56.2756 8.93481C55.9024 9.10091 55.4984 9.18674 55.0899 9.18674C54.6813 9.18674 54.2774 9.10091 53.9042 8.93481C53.4631 8.74171 52.9853 8.64665 52.5039 8.65622C52.0224 8.66579 51.5488 8.77976 51.1157 8.99024C50.8685 9.1207 50.5932 9.18929 50.3135 9.19014C49.1833 9.19014 48.2432 8.05292 48.0481 6.55286C48.2734 6.38788 48.4652 6.1815 48.6132 5.94478C49.2758 4.87811 50.295 4.19275 51.4538 4.19275C52.6126 4.19275 53.6217 4.86467 54.2843 5.92462C54.4823 6.24293 54.7589 6.50501 55.0876 6.68564C55.4163 6.86628 55.786 6.95938 56.1612 6.95601H56.1915C57.0828 6.95097 57.8615 7.6716 58.25 8.7198Z" fill="#7052CC"/>
<path opacity="0.1" d="M61.6842 4.01639L59.8577 5.17377L60.9661 3.15802C60.6518 2.90787 60.263 2.76955 59.8611 2.76494H59.8325C59.7058 2.76649 59.5792 2.75693 59.4541 2.73639L58.8335 3.12946L59.0992 2.64736C58.6619 2.49535 58.2832 2.21047 58.0161 1.83266L56.9045 2.52641L57.6041 1.25481C56.9566 0.477061 56.0821 0 55.1217 0C53.9697 0 52.9354 0.685356 52.2795 1.75203C52.0832 2.07063 51.806 2.3317 51.4761 2.50872C51.1461 2.68573 50.7752 2.77239 50.4009 2.7599H50.3454C49.0739 2.7599 48.0413 4.19949 48.0413 5.97839C48.0413 7.7573 49.0739 9.1952 50.3454 9.1952C50.625 9.19435 50.9003 9.12576 51.1476 8.9953C51.5806 8.78465 52.0543 8.67072 52.5359 8.66144C53.0174 8.65216 53.4952 8.74774 53.9361 8.94155C54.3094 9.10713 54.7133 9.19269 55.1217 9.19269C55.5302 9.19269 55.9341 9.10713 56.3074 8.94155C56.7449 8.75186 57.2181 8.65847 57.6949 8.66775C58.1717 8.67702 58.6409 8.78874 59.0707 8.9953C59.316 9.12227 59.5881 9.18907 59.8645 9.19016C61.1376 9.19016 62.1686 7.75058 62.1686 5.97335C62.173 5.2909 62.0065 4.61816 61.6842 4.01639Z" fill="#7052CC"/>
<path opacity="0.1" d="M20.2407 31.9917C19.291 31.8122 18.3093 31.9186 17.4203 32.2974C16.8867 32.5336 16.3094 32.655 15.7258 32.6535C15.1422 32.6521 14.5654 32.5279 14.0331 32.289C13.4032 32.0132 12.7208 31.8774 12.0331 31.891C11.3455 31.9046 10.669 32.0674 10.0505 32.368C9.69682 32.5541 9.30331 32.6521 8.90352 32.6535C7.28897 32.6535 5.9452 31.0292 5.66602 28.8858C5.98864 28.651 6.26277 28.3561 6.47329 28.0173C7.42016 26.4937 8.88671 25.5144 10.5332 25.5144C12.1797 25.5144 13.6278 26.482 14.5696 27.9887C14.8526 28.4454 15.2492 28.8211 15.7208 29.0793C16.1924 29.3374 16.7228 29.4693 17.2605 29.4619H17.3025C18.5774 29.4602 19.6907 30.49 20.2407 31.9917Z" fill="#7052CC"/>
<path opacity="0.1" d="M25.1516 25.2642L22.5414 26.9171L24.1257 24.0396C23.6767 23.6816 23.1209 23.4836 22.5464 23.4768H22.5044C22.323 23.4795 22.1418 23.466 21.9629 23.4365L21.0816 24.006L21.4617 23.3173C20.8345 23.0984 20.2929 22.6867 19.9144 22.1414L18.3301 23.1493L19.3274 21.3183C18.4008 20.208 17.1528 19.5276 15.7805 19.5276C14.134 19.5276 12.6674 20.5053 11.7205 22.0289C11.4401 22.486 11.0433 22.8608 10.5706 23.1149C10.0979 23.3689 9.56614 23.4933 9.02963 23.4752H8.9405C7.12245 23.4752 5.64917 25.5329 5.64917 28.0728C5.64917 30.6126 7.12245 32.6704 8.9405 32.6704C9.34054 32.6693 9.73428 32.5707 10.0875 32.3831C10.7061 32.0828 11.3826 31.9203 12.0703 31.907C12.7579 31.8936 13.4403 32.0297 14.0701 32.3059C14.6024 32.5447 15.1792 32.6689 15.7628 32.6704C16.3464 32.6718 16.9237 32.5505 17.4572 32.3143C18.0824 32.0432 18.7586 31.9097 19.4399 31.9228C20.1213 31.9358 20.7919 32.0951 21.4062 32.3898C21.756 32.5727 22.1448 32.6689 22.5397 32.6704C24.3578 32.6704 25.831 30.6109 25.831 28.0728C25.8437 27.0945 25.6101 26.1287 25.1516 25.2642Z" fill="#7052CC"/>
<path opacity="0.1" d="M125.795 15.271C126.46 15.1451 127.148 15.2199 127.77 15.4861C128.142 15.6522 128.546 15.7381 128.954 15.7381C129.363 15.7381 129.766 15.6522 130.139 15.4861C130.58 15.293 131.058 15.1979 131.54 15.2075C132.021 15.217 132.495 15.331 132.928 15.5415C133.175 15.6718 133.45 15.7403 133.73 15.7414C134.86 15.7414 135.802 14.6042 135.997 13.1041C135.771 12.9396 135.58 12.7331 135.432 12.496C134.773 11.426 133.742 10.7356 132.586 10.7356C131.431 10.7356 130.42 11.4075 129.758 12.4675C129.56 12.7872 129.283 13.0506 128.954 13.2322C128.624 13.4137 128.253 13.5073 127.877 13.5039H127.849C126.954 13.5022 126.174 14.2229 125.795 15.271Z" fill="#7052CC"/>
<path opacity="0.1" d="M122.351 10.5676L124.177 11.7216L123.067 9.70583C123.382 9.45591 123.77 9.31762 124.172 9.31275H124.203C124.329 9.31421 124.456 9.30465 124.581 9.2842L125.2 9.67727L124.934 9.19517C125.375 9.0457 125.757 8.76191 126.027 8.38383L127.136 9.08598L126.434 7.81438C127.083 7.03663 127.948 6.55957 128.918 6.55957C130.07 6.55957 131.105 7.24493 131.761 8.3116C131.957 8.63032 132.234 8.89148 132.564 9.06852C132.894 9.24555 133.265 9.33214 133.639 9.31947H133.7C134.973 9.31947 136.004 10.7591 136.004 12.538C136.004 14.3169 134.973 15.7548 133.7 15.7548C133.42 15.7535 133.145 15.685 132.898 15.5549C132.465 15.3442 131.991 15.2303 131.509 15.221C131.028 15.2117 130.55 15.3073 130.109 15.5011C129.736 15.6667 129.332 15.7522 128.924 15.7522C128.516 15.7522 128.112 15.6667 127.739 15.5011C127.302 15.3114 126.828 15.218 126.351 15.2273C125.874 15.2365 125.404 15.3483 124.974 15.5549C124.729 15.682 124.457 15.7488 124.181 15.7497C122.909 15.7497 121.877 14.3101 121.877 12.5329C121.868 11.8485 122.031 11.1728 122.351 10.5676Z" fill="#7052CC"/>
<path opacity="0.1" d="M103.538 130.5C114.22 130.5 122.879 128.996 122.879 127.14C122.879 125.285 114.22 123.781 103.538 123.781C92.8563 123.781 84.197 125.285 84.197 127.14C84.197 128.996 92.8563 130.5 103.538 130.5Z" fill="#7052CC"/>
<path d="M93.4152 111.182L63.4468 110.798L63.5359 110.03L64.984 97.366H91.3028L93.2386 110.03L93.3866 110.991L93.4152 111.182Z" fill="#D0D2D5"/>
<path opacity="0.1" d="M93.3866 110.991H78.4318L63.4468 110.798L63.5359 110.03H93.2386L93.3866 110.991Z" fill="black"/>
<path d="M98.2184 110.223H58.4517V111.182H98.2184V110.223Z" fill="#D0D2D5"/>
<path d="M136.159 21.3048C136.161 20.6429 135.9 20.0072 135.433 19.5373C134.967 19.0674 134.332 18.8017 133.67 18.7986H22.6156C22.2872 18.8001 21.9623 18.8663 21.6594 18.9932C21.3566 19.1202 21.0818 19.3055 20.8506 19.5385C20.6195 19.7715 20.4366 20.0478 20.3123 20.3514C20.1881 20.6551 20.1249 20.9802 20.1265 21.3082V88.542H136.159V21.3048Z" fill="#3F3D56"/>
<path d="M20.1265 87.8701V95.745C20.1265 96.4044 20.3887 97.0367 20.8555 97.5029C21.3223 97.9692 21.9554 98.2311 22.6156 98.2311H133.67C134.33 98.2311 134.963 97.9692 135.43 97.5029C135.897 97.0367 136.159 96.4044 136.159 95.745V87.8701H20.1265Z" fill="#D0D2D5"/>
<path d="M131.932 23.0149H24.9297V83.4556H131.932V23.0149Z" fill="white"/>
<path d="M78.7194 95.2427C79.1123 95.2432 79.5002 95.1543 79.8536 94.9829C80.207 94.8115 80.5168 94.562 80.7594 94.2533C80.8332 94.1593 80.9006 94.0606 80.9613 93.9577L79.5368 93.7175L81.0756 93.7275C81.2232 93.407 81.3036 93.0597 81.312 92.7071C81.3204 92.3544 81.2565 92.0037 81.1244 91.6765L79.0608 92.7449L80.9646 91.3473C80.7858 91.0403 80.5457 90.7733 80.2593 90.563C79.9728 90.3526 79.6461 90.2033 79.2995 90.1244C78.9528 90.0454 78.5936 90.0385 78.2442 90.1041C77.8947 90.1697 77.5625 90.3063 77.2682 90.5055C76.9738 90.7048 76.7236 90.9623 76.5332 91.2622C76.3427 91.562 76.216 91.8978 76.1609 92.2487C76.1059 92.5995 76.1236 92.9579 76.2131 93.3016C76.3026 93.6453 76.4618 93.967 76.681 94.2466C76.9228 94.5563 77.232 94.8069 77.5852 94.9795C77.9383 95.1521 78.3262 95.2421 78.7194 95.2427Z" fill="#7052CC"/>
<path opacity="0.1" d="M81.3127 98.2294L93.2688 110.223L91.4339 98.2294H81.3127Z" fill="black"/>
<path opacity="0.1" d="M131.964 23.0216H24.8455V26.5525H131.964V23.0216Z" fill="#444053"/>
<path opacity="0.3" d="M94.214 23.6364H62.1349C62.081 23.6364 62.0374 23.68 62.0374 23.7338V25.6874C62.0374 25.7413 62.081 25.7849 62.1349 25.7849H94.214C94.2679 25.7849 94.3115 25.7413 94.3115 25.6874V23.7338C94.3115 23.68 94.2679 23.6364 94.214 23.6364Z" fill="#7052CC"/>
<path d="M93.353 24.9332H93.2739L93.2453 24.908C93.3432 24.7905 93.3967 24.6425 93.3967 24.4897C93.3957 24.3643 93.3575 24.242 93.287 24.1382C93.2164 24.0344 93.1167 23.9538 93.0004 23.9065C92.884 23.8593 92.7563 23.8475 92.6333 23.8728C92.5102 23.898 92.3974 23.959 92.3091 24.0482C92.2207 24.1373 92.1608 24.2506 92.1369 24.3738C92.113 24.4969 92.1261 24.6244 92.1746 24.7401C92.2231 24.8558 92.3049 24.9545 92.4095 25.0239C92.5142 25.0932 92.6371 25.1301 92.7626 25.1297C92.9158 25.1292 93.064 25.0751 93.1814 24.9769L93.21 25.0021V25.081L93.7028 25.5732L93.8491 25.4254L93.353 24.9332ZM92.7626 24.9332C92.6748 24.9335 92.5887 24.9078 92.5155 24.8593C92.4423 24.8107 92.3851 24.7416 92.3512 24.6606C92.3174 24.5796 92.3083 24.4904 92.3253 24.4042C92.3422 24.3181 92.3844 24.2389 92.4464 24.1767C92.5084 24.1146 92.5875 24.0722 92.6737 24.0549C92.7599 24.0377 92.8492 24.0463 92.9305 24.0799C93.0117 24.1134 93.0811 24.1702 93.13 24.2432C93.1789 24.3161 93.205 24.4019 93.205 24.4897C93.2054 24.5479 93.1943 24.6057 93.1722 24.6596C93.1502 24.7135 93.1176 24.7625 93.0765 24.8037C93.0354 24.8449 92.9864 24.8776 92.9326 24.8999C92.8787 24.9221 92.8209 24.9334 92.7626 24.9332Z" fill="#3F3D56"/>
<path opacity="0.8" d="M26.7713 25.4338C27.1289 25.4338 27.4188 25.1442 27.4188 24.787C27.4188 24.4299 27.1289 24.1403 26.7713 24.1403C26.4137 24.1403 26.1238 24.4299 26.1238 24.787C26.1238 25.1442 26.4137 25.4338 26.7713 25.4338Z" fill="#FA5959"/>
<path opacity="0.8" d="M28.5523 25.4338C28.9099 25.4338 29.1998 25.1442 29.1998 24.787C29.1998 24.4299 28.9099 24.1403 28.5523 24.1403C28.1947 24.1403 27.9048 24.4299 27.9048 24.787C27.9048 25.1442 28.1947 25.4338 28.5523 25.4338Z" fill="#FED253"/>
<path opacity="0.8" d="M30.335 25.4338C30.6926 25.4338 30.9825 25.1442 30.9825 24.787C30.9825 24.4299 30.6926 24.1403 30.335 24.1403C29.9774 24.1403 29.6875 24.4299 29.6875 24.787C29.6875 25.1442 29.9774 25.4338 30.335 25.4338Z" fill="#8CCF4D"/>
<path d="M84.0996 48.9492C82.6314 47.0007 80.5039 45.7711 78.1359 45.7711C75.7678 45.7711 73.6404 47.0007 72.1721 48.9492C72.4967 49.7444 72.977 50.4669 73.5848 51.0742C74.336 51.8241 75.2613 52.3767 76.2781 52.6829C77.295 52.989 78.3719 53.0391 79.4129 52.8288C80.4539 52.6184 81.4266 52.1541 82.2443 51.4772C83.062 50.8003 83.6994 49.9318 84.0996 48.9492Z" fill="#7052CC"/>
<path d="M71.1007 49.9219C71.1929 49.9886 71.2921 50.0449 71.3967 50.0898C72.5235 52.366 74.8579 54.1079 77.537 54.254V65.0467C75.5105 64.9258 73.8875 63.9061 72.5235 62.3154C72.4058 62.4044 72.3184 62.485 72.2376 62.5606C72.1244 62.6677 72.0453 62.8058 72.0103 62.9576C71.9753 63.1094 71.9859 63.2682 72.0409 63.414C72.1149 63.6147 72.1341 63.8315 72.0965 64.0422C72.0589 64.2528 71.9659 64.4496 71.8271 64.6125C71.6882 64.7754 71.5085 64.8985 71.3063 64.9691C71.1041 65.0397 70.8867 65.0554 70.6765 65.0144C70.4663 64.9735 70.2707 64.8774 70.1099 64.7361C69.9491 64.5948 69.8289 64.4132 69.7615 64.2102C69.6941 64.0071 69.6819 63.7898 69.7264 63.5805C69.7708 63.3712 69.8702 63.1775 70.0143 63.0192C70.0576 62.9717 70.1048 62.9278 70.1555 62.8882C70.1847 62.8616 70.2168 62.8385 70.2514 62.8193C70.4364 62.1508 70.8754 61.5477 71.5884 60.9951C70.7859 59.6252 70.295 58.0957 70.1505 56.515C70.0465 56.516 69.9426 56.5228 69.8393 56.5352C69.6991 56.554 69.5667 56.611 69.4567 56.6998C69.3466 56.7887 69.2632 56.9061 69.2154 57.0391C69.1377 57.2455 69.005 57.4266 68.8317 57.563C68.6583 57.6994 68.4509 57.7858 68.2319 57.8128C68.0129 57.8398 67.7906 57.8065 67.5892 57.7164C67.3878 57.6263 67.2149 57.4829 67.0893 57.3017C66.9637 57.1205 66.8901 56.9084 66.8766 56.6884C66.863 56.4684 66.91 56.2489 67.0124 56.0536C67.1148 55.8584 67.2687 55.6949 67.4576 55.5808C67.6464 55.4667 67.8628 55.4064 68.0835 55.4064C68.1324 55.4072 68.1813 55.4106 68.2298 55.4165C68.4105 55.2866 68.611 55.1868 68.8235 55.1208C69.2386 54.9911 69.6702 54.9215 70.1051 54.9142C70.1479 53.7936 70.36 52.6859 70.7341 51.6285C70.4623 51.4743 70.2061 51.2942 69.9688 51.091C69.7376 50.8847 69.5481 50.6361 69.4105 50.3586C69.3376 50.2184 69.2262 50.1018 69.0893 50.0226C68.9839 49.9593 68.8877 49.8819 68.8033 49.7925C68.6538 49.6315 68.5512 49.4328 68.5064 49.2178C68.4617 49.0029 68.4765 48.7798 68.5494 48.5726C68.6223 48.3654 68.7504 48.1821 68.9199 48.0423C69.0894 47.9025 69.2939 47.8116 69.5114 47.7793C69.7288 47.7471 69.951 47.7747 70.1538 47.8593C70.3567 47.9439 70.5326 48.0822 70.6626 48.2593C70.7926 48.4363 70.8717 48.6455 70.8914 48.8642C70.9111 49.0829 70.8707 49.3028 70.7744 49.5002C70.8498 49.6637 70.9613 49.8078 71.1007 49.9219Z" fill="#7052CC"/>
<path d="M114.532 125.182C114.435 125.027 114.311 124.89 114.167 124.777C113.432 124.083 113.091 123.065 112.909 122.067C112.728 121.07 112.675 120.052 112.385 119.076C112.226 118.575 112.028 118.088 111.793 117.619C111.624 117.26 111.412 116.556 111.105 116.304C111.044 116.252 110.971 116.216 110.893 116.202C110.747 115.893 110.54 115.617 110.284 115.392C109.803 114.957 109.216 114.611 108.895 114.048C108.806 113.853 108.698 113.668 108.57 113.495C108.353 113.257 108.01 113.159 107.81 112.907C107.549 112.582 107.608 112.115 107.642 111.7C107.675 111.285 107.642 110.788 107.282 110.569C107.067 110.436 106.789 110.45 106.565 110.332C106.229 110.164 106.096 109.741 106.103 109.363C106.11 108.985 106.227 108.617 106.258 108.239C106.352 107.037 105.558 105.841 105.864 104.675C105.98 104.233 106.246 103.85 106.443 103.438C106.511 103.301 106.568 103.159 106.611 103.012C107.136 103.22 107.687 103.352 108.249 103.407C107.322 101.33 107.558 98.9181 107.125 96.6874L107.181 96.6118C107.618 96.0366 107.865 95.3408 107.891 94.6195C107.891 93.7897 107.502 93.0136 107.327 92.2006C107.178 91.5102 107.184 90.7879 106.991 90.1093C106.857 89.6876 106.679 89.2811 106.459 88.8965C106.25 88.5079 106.029 88.1254 105.799 87.7492C105.583 87.0369 105.367 86.3247 105.151 85.6125C104.848 84.613 104.537 83.5967 103.949 82.7333C103.733 82.4175 103.668 81.7758 103.336 81.5843C103.067 81.4453 102.762 81.3919 102.462 81.4315C101.994 81.1694 101.584 80.7915 101.525 80.2741C101.519 80.161 101.531 80.0478 101.559 79.9381H101.616C102.356 79.8709 102.731 79.2192 103.116 78.648C103.738 77.7241 103.501 76.4744 103.116 75.4228C103.021 75.0909 102.848 74.7864 102.611 74.5342C102.072 74.0303 101.217 74.1411 100.521 73.8976C100.287 73.8169 100.069 73.6943 99.8297 73.6372C99.3672 73.5297 98.8829 73.6809 98.459 73.8942C98.0352 74.1075 97.64 74.383 97.196 74.551C96.752 74.719 96.2037 74.8517 96.0944 75.3069C96.0638 75.4602 96.0766 75.6191 96.1314 75.7655C96.2336 76.0576 96.4132 76.3165 96.6511 76.5147C96.462 76.904 96.3598 77.3296 96.3514 77.7622C96.343 78.1948 96.4286 78.6241 96.6024 79.0205C96.7762 79.4168 97.034 79.7708 97.358 80.058C97.682 80.3451 98.0646 80.5587 98.4792 80.6839C98.607 80.8889 98.7265 81.0972 98.8358 81.3105C99.0309 81.6868 99.1957 82.1302 99.1284 82.5334C99.0067 82.6625 98.8943 82.8 98.792 82.945C98.3094 83.6169 98.0352 84.4047 97.7829 85.1908C97.4441 86.1946 97.1727 87.2199 96.9706 88.2598C96.5603 89.1316 96.0591 89.9648 95.7614 90.8803C95.2284 90.881 94.6978 90.8098 94.1838 90.6686L92.7644 90.3478C92.2699 90.2353 91.7553 90.1143 91.3685 89.7884C91.1633 89.6205 91.0035 89.397 90.795 89.2307C90.5864 89.0644 90.1677 88.8696 89.9389 89.0073C89.8971 89.0327 89.8582 89.0626 89.8229 89.0964C89.6143 88.6747 89.4159 88.2565 89.1737 87.8483C88.8256 87.2771 88.3076 86.7547 87.6516 86.6455C87.2509 86.5811 86.8408 86.6764 86.5097 86.9109C86.1262 87.1831 85.8857 87.7508 86.1733 88.1338C86.2452 88.2191 86.3233 88.2988 86.4071 88.3724C86.6018 88.5964 86.7757 88.8376 86.9268 89.093C87.4689 89.853 88.2799 90.379 89.1956 90.5645L89.1367 90.7325C89.0173 91.0819 88.7633 91.5035 88.8272 91.8663L95.1408 94.0249C95.5458 94.1891 95.9757 94.2839 96.4123 94.3054C96.5826 94.304 96.7521 94.2814 96.9168 94.2382V94.5607V94.5742C96.9336 96.7898 96.5804 98.9904 96.5149 101.204C96.5031 101.609 96.5148 102.044 96.7705 102.36C97.0564 102.706 97.5643 102.775 98.0066 102.696C98.1131 102.678 98.2174 102.655 98.3194 102.625C98.4691 103.183 98.577 103.75 98.6424 104.324L99.0595 107.324C99.1131 107.631 99.1351 107.943 99.125 108.254C99.0763 108.958 98.7046 109.588 98.4355 110.238C98.1664 110.888 98.0066 111.666 98.3598 112.274C98.4708 112.462 98.6239 112.622 98.7231 112.817C98.8492 113.118 98.9066 113.444 98.8913 113.771C98.9171 114.676 98.9417 115.582 98.9653 116.489C98.8919 116.477 98.8166 116.492 98.7534 116.531C98.4035 116.803 98.4422 118.098 98.417 118.5C98.3901 119.171 98.417 119.857 98.38 120.535C98.3363 121.45 98.189 122.357 97.941 123.238C97.8804 123.525 97.7479 123.791 97.5559 124.013C97.3592 124.183 97.1246 124.305 96.8714 124.367C96.0335 124.629 95.1573 124.748 94.2797 124.72C93.9248 124.708 93.5548 124.674 93.2252 124.809C92.8956 124.943 92.6298 125.313 92.7493 125.649C92.8518 125.931 93.163 126.065 93.4438 126.171C94.0855 126.397 94.7048 126.681 95.2939 127.021C95.5206 127.175 95.7597 127.311 96.0086 127.426C96.2473 127.512 96.4941 127.572 96.7453 127.607L99.7271 128.121C100.338 128.226 101.073 128.289 101.461 127.785C101.671 127.513 101.702 127.144 101.692 126.798C101.675 126.126 101.54 125.442 101.628 124.77C101.694 124.373 101.799 123.983 101.94 123.606C102.238 122.725 102.536 121.844 102.835 120.964C103.135 120.08 103.437 119.188 103.553 118.261C103.595 117.925 103.592 117.542 103.335 117.332C103.27 117.279 103.194 117.24 103.113 117.218C103.103 116.408 102.997 115.597 103.042 114.787C103.054 114.586 103.074 114.384 103.091 114.181C103.247 114.329 103.386 114.493 103.506 114.671C103.794 115.121 103.9 115.716 104.339 116.015C104.712 116.27 105.265 116.257 105.528 116.627C105.612 116.768 105.675 116.922 105.716 117.082C105.868 117.478 106.097 117.84 106.389 118.148C106.489 118.517 106.628 118.874 106.804 119.213C107.052 119.736 107.299 120.258 107.544 120.777C107.797 121.338 108.077 121.886 108.385 122.418C108.62 122.754 108.81 123.119 108.949 123.504C109.186 124.333 108.799 125.244 108.187 125.855C107.575 126.467 106.767 126.818 105.972 127.145C105.888 127.174 105.811 127.22 105.746 127.28C105.677 127.361 105.641 127.465 105.644 127.572C105.644 127.96 105.963 128.293 106.33 128.412C106.705 128.513 107.098 128.527 107.479 128.454C109.628 128.194 111.771 127.669 113.671 126.626C113.955 126.492 114.207 126.298 114.409 126.057C114.507 125.936 114.57 125.79 114.592 125.636C114.613 125.482 114.593 125.325 114.532 125.182Z" fill="url(#paint0_linear_46_2036)"/>
<path d="M105.449 87.5123C105.807 88.0621 106.144 88.6254 106.458 89.2021C106.678 89.5836 106.856 89.9874 106.991 90.4066C107.186 91.0785 107.181 91.7958 107.327 92.4811C107.495 93.2874 107.889 94.0568 107.889 94.8832C107.863 95.5993 107.615 96.2897 107.179 96.8587C106.744 97.4228 106.247 97.9356 105.696 98.3873C104.426 95.1012 103.716 91.6257 103.597 88.1052C103.58 87.6181 103.577 87.1158 103.755 86.6606C103.864 86.3751 104.389 85.5923 104.727 85.8997C104.85 86.0122 104.882 86.5195 104.957 86.6892C105.099 86.976 105.263 87.2513 105.449 87.5123Z" fill="#2F2E41"/>
<path opacity="0.1" d="M105.449 87.5123C105.807 88.0621 106.144 88.6254 106.458 89.2021C106.678 89.5836 106.856 89.9874 106.991 90.4066C107.186 91.0785 107.181 91.7958 107.327 92.4811C107.495 93.2874 107.889 94.0568 107.889 94.8832C107.863 95.5993 107.615 96.2897 107.179 96.8587C106.744 97.4228 106.247 97.9356 105.696 98.3873C104.426 95.1012 103.716 91.6257 103.597 88.1052C103.58 87.6181 103.577 87.1158 103.755 86.6606C103.864 86.3751 104.389 85.5923 104.727 85.8997C104.85 86.0122 104.882 86.5195 104.957 86.6892C105.099 86.976 105.263 87.2513 105.449 87.5123Z" fill="black"/>
<path d="M61.1089 64.5949C59.7786 65.9219 59.6188 66.5065 58.82 66.7702C58.0211 67.0339 55.1469 68.5206 56.05 70.1684L58.4785 71.771L58.5492 71.818L58.9209 72.9334L55.2478 79.4644C55.2478 79.4644 49.1932 76.6995 48.5995 80.7898C48.0058 84.8801 48.3826 85.9971 48.2228 88.1809C48.063 90.3646 48.2749 90.9962 47.7418 90.9962C47.2087 90.9962 46.9984 89.5617 46.9984 89.5617C46.9984 89.5617 46.9648 89.4962 46.9059 89.3735C46.1138 87.729 40.737 75.6563 49.3496 67.3581C49.3496 67.3581 53.3389 67.0961 54.2992 62.527C54.9619 59.369 57.2794 59.6412 58.82 60.2845C59.3207 60.4806 59.7872 60.7544 60.2024 61.0959C60.576 61.4492 60.9084 61.8436 61.193 62.2717C61.632 62.9638 61.8708 63.8322 61.1089 64.5949Z" fill="#D0D2D5"/>
<path opacity="0.1" d="M58.5494 71.818L58.9211 72.9334L55.248 79.4644C55.248 79.4644 49.1934 76.6995 48.5997 80.7898C48.006 84.8801 48.3828 85.9971 48.223 88.1809C48.0632 90.3646 48.2751 90.9962 47.742 90.9962C47.2089 90.9962 46.9986 89.5617 46.9986 89.5617C46.9986 89.5617 46.965 89.4962 46.9061 89.3735C46.6387 87.3309 45.2832 75.3825 50.1975 76.0175C50.1975 76.0175 54.1851 77.8787 54.8225 77.1362C55.327 76.5483 57.5672 73.1669 58.4787 71.7794L58.5494 71.818Z" fill="black"/>
<path opacity="0.1" d="M61.1932 62.2616L58.7646 65.0182C58.7646 65.0182 55.9442 68.7876 55.3589 68.6281C55.1837 68.5899 55.0051 68.5691 54.8258 68.5659C54.6305 68.551 54.4435 68.4811 54.2864 68.3643C54.1293 68.2476 54.0086 68.0888 53.9382 67.9063C53.8678 67.7238 53.8506 67.5251 53.8886 67.3332C53.9266 67.1414 54.0183 66.9642 54.153 66.8223C55.1151 65.8144 56.8877 63.9011 57.0037 63.4761C57.1198 63.0511 58.2483 61.1883 58.8134 60.2761C59.3141 60.4722 59.7806 60.746 60.1958 61.0875C60.5717 61.4399 60.9063 61.8338 61.1932 62.2616Z" fill="black"/>
<path d="M129.906 101.92C129.494 102.743 127.383 105.83 126.46 107.179L126.027 107.814C126.027 107.814 125.859 108.93 123.103 107.547C120.346 106.165 55.5808 78.8698 55.5808 78.8698L55.1418 77.5528L58.3373 72.7738L129.322 100.166C129.322 100.166 130.439 100.857 129.906 101.92Z" fill="#454B69"/>
<path opacity="0.1" d="M126.46 107.179L126.027 107.814C126.027 107.814 125.859 108.93 123.103 107.547C120.346 106.165 55.5808 78.8697 55.5808 78.8697L55.1418 77.5528L126.46 107.179Z" fill="black"/>
<path d="M87.3943 89.35C86.7367 89.2425 86.0068 89.2946 85.4956 89.7212C85.1865 89.9826 84.9912 90.3536 84.9506 90.756C84.9069 91.2213 85.1777 91.7739 85.6452 91.8092C85.7578 91.8105 85.8702 91.8032 85.9816 91.7874C86.277 91.7861 86.5719 91.8108 86.8629 91.8613C87.4357 91.9151 88.013 91.8309 88.5465 91.6158C89.08 91.4007 89.554 91.0609 89.9288 90.625C90.3308 90.121 89.801 89.9027 89.3268 89.8019C88.6776 89.6641 88.0435 89.4541 87.3943 89.35Z" fill="#FBBEBE"/>
<path d="M98.6423 104.52L99.0594 107.48C99.1125 107.786 99.1339 108.096 99.1233 108.406C99.0745 109.103 98.7029 109.728 98.4354 110.373C98.168 111.018 98.0049 111.79 98.3598 112.388C98.4691 112.575 98.6221 112.734 98.7214 112.928C98.8474 113.226 98.9049 113.55 98.8895 113.873L99.0039 118.073C100.302 118.161 101.605 118.154 102.902 118.051C102.953 118.053 103.003 118.038 103.044 118.007C103.078 117.964 103.095 117.91 103.092 117.854C103.15 116.872 102.978 115.887 103.034 114.905C103.054 114.545 103.104 114.187 103.111 113.826C103.131 112.363 102.408 110.93 102.627 109.484C102.695 109.119 102.785 108.758 102.896 108.404C103.587 105.884 103.441 103.237 103.288 100.635C103.29 100.593 103.278 100.551 103.254 100.517C103.229 100.492 103.197 100.476 103.163 100.469C102.427 100.248 101.649 100.208 100.894 100.351C100.14 100.494 99.4308 100.817 98.8273 101.292C98.644 101.44 98.1815 101.582 98.0604 101.759C97.8922 102.004 98.1125 102.249 98.2101 102.51C98.4262 103.162 98.5711 103.836 98.6423 104.52Z" fill="#3F3D56"/>
<path opacity="0.1" d="M98.6423 104.52L99.0594 107.48C99.1125 107.786 99.1339 108.096 99.1233 108.406C99.0745 109.103 98.7029 109.728 98.4354 110.373C98.168 111.018 98.0049 111.79 98.3598 112.388C98.4691 112.575 98.6221 112.734 98.7214 112.928C98.8474 113.226 98.9049 113.55 98.8895 113.873L99.0039 118.073C100.302 118.161 101.605 118.154 102.902 118.051C102.953 118.053 103.003 118.038 103.044 118.007C103.078 117.964 103.095 117.91 103.092 117.854C103.15 116.872 102.978 115.887 103.034 114.905C103.054 114.545 103.104 114.187 103.111 113.826C103.131 112.363 102.408 110.93 102.627 109.484C102.695 109.119 102.785 108.758 102.896 108.404C103.587 105.884 103.441 103.237 103.288 100.635C103.29 100.593 103.278 100.551 103.254 100.517C103.229 100.492 103.197 100.476 103.163 100.469C102.427 100.248 101.649 100.208 100.894 100.351C100.14 100.494 99.4308 100.817 98.8273 101.292C98.644 101.44 98.1815 101.582 98.0604 101.759C97.8922 102.004 98.1125 102.249 98.2101 102.51C98.4262 103.162 98.5711 103.836 98.6423 104.52Z" fill="black"/>
<path d="M106.441 103.628C106.244 104.036 105.98 104.416 105.862 104.854C105.556 106.012 106.348 107.206 106.254 108.392C106.224 108.767 106.108 109.131 106.099 109.506C106.091 109.88 106.229 110.297 106.562 110.47C106.786 110.584 107.066 110.573 107.277 110.704C107.631 110.92 107.672 111.412 107.637 111.826C107.601 112.239 107.542 112.701 107.805 113.023C108.005 113.274 108.348 113.371 108.563 113.608C108.691 113.778 108.8 113.962 108.888 114.156C109.209 114.717 109.796 115.059 110.277 115.499C110.758 115.939 111.165 116.585 110.95 117.194C110.792 117.641 110.348 117.917 109.92 118.127C109.141 118.511 108.318 118.802 107.47 118.992C107.379 119.019 107.283 119.024 107.189 119.007C107.095 118.972 107.01 118.914 106.944 118.839C106.447 118.353 105.935 117.844 105.706 117.191C105.665 117.033 105.602 116.881 105.517 116.741C105.255 116.373 104.702 116.386 104.328 116.133C103.891 115.835 103.785 115.246 103.499 114.801C103.213 114.355 102.795 114.09 102.49 113.699C101.976 113.047 101.849 112.177 101.481 111.433C101.325 111.117 101.125 110.821 101 110.492C100.874 110.097 100.797 109.689 100.77 109.276C100.533 107.314 99.9287 105.338 100.309 103.396C100.393 102.97 100.522 102.557 100.576 102.116C100.669 101.355 100.522 100.576 100.635 99.8168C100.638 99.7215 100.662 99.628 100.706 99.5434C100.75 99.4587 100.813 99.3851 100.889 99.328C100.98 99.2872 101.079 99.2671 101.178 99.2692C102.175 99.2159 103.175 99.2384 104.169 99.3364C104.673 99.3851 105.238 99.4875 105.541 99.8991C105.798 100.252 105.785 100.724 105.867 101.152C105.97 101.68 106.237 101.967 106.518 102.38C106.799 102.793 106.648 103.202 106.441 103.628Z" fill="#3F3D56"/>
<path d="M102.561 117.278C102.827 117.278 103.121 117.261 103.326 117.429C103.582 117.639 103.585 118.024 103.545 118.352C103.427 119.272 103.126 120.157 102.825 121.039L101.93 123.662C101.789 124.036 101.684 124.423 101.617 124.817C101.53 125.489 101.665 126.161 101.681 126.833C101.681 127.169 101.66 127.542 101.449 127.812C101.069 128.301 100.328 128.244 99.717 128.148L96.7385 127.644C96.4872 127.611 96.2403 127.551 96.0019 127.465C95.7533 127.35 95.5143 127.216 95.2871 127.063C94.6977 126.727 94.0784 126.446 93.4371 126.223C93.1579 126.119 92.8451 125.986 92.7442 125.706C92.6248 125.37 92.8905 125 93.2201 124.866C93.5498 124.732 93.9181 124.765 94.2746 124.775C95.1514 124.803 96.0267 124.685 96.8647 124.426C97.1171 124.364 97.3511 124.243 97.5475 124.073C97.747 123.849 97.8829 123.576 97.941 123.282C98.1948 122.406 98.346 121.505 98.3917 120.594C98.4271 119.922 98.4035 119.25 98.4304 118.578C98.4472 118.18 98.4086 116.899 98.7584 116.625C99.0258 116.42 100.126 116.986 100.487 117.068C101.167 117.224 101.864 117.294 102.561 117.278Z" fill="#2F2E41"/>
<path d="M112.373 119.146C112.664 120.109 112.709 121.127 112.897 122.116C113.086 123.105 113.419 124.115 114.154 124.804C114.297 124.917 114.42 125.053 114.519 125.207C114.581 125.351 114.602 125.509 114.579 125.664C114.557 125.819 114.492 125.965 114.392 126.085C114.189 126.324 113.938 126.517 113.654 126.651C111.755 127.686 109.618 128.209 107.463 128.467C107.083 128.539 106.691 128.524 106.316 128.425C105.95 128.301 105.625 127.972 105.632 127.585C105.628 127.479 105.664 127.376 105.733 127.295C105.798 127.235 105.876 127.19 105.96 127.162C106.754 126.836 107.559 126.482 108.173 125.88C108.787 125.279 109.172 124.369 108.935 123.552C108.795 123.17 108.604 122.808 108.368 122.476C108.061 121.947 107.78 121.404 107.527 120.848L106.787 119.297C106.57 118.844 106.352 118.377 106.315 117.876C107.244 117.918 108.173 117.769 109.043 117.439C109.449 117.274 109.827 117.047 110.164 116.768C110.45 116.529 110.711 116.084 111.096 116.395C111.406 116.643 111.601 117.344 111.782 117.698C112.018 118.164 112.216 118.648 112.373 119.146Z" fill="#2F2E41"/>
<path d="M101.528 80.6469C101.602 81.292 102.228 81.717 102.825 81.9723L99.0459 83.1767C99.2898 82.7097 99.093 82.1386 98.8508 81.6649C98.6536 81.2898 98.4287 80.9299 98.1781 80.5882C98.1411 80.5361 98.0991 80.4706 98.126 80.4101C98.15 80.3706 98.1877 80.3413 98.2319 80.3278C99.0089 79.9817 99.8095 79.6239 100.659 79.498C100.904 79.4627 101.369 79.3653 101.552 79.6139C101.735 79.8625 101.493 80.3496 101.528 80.6469Z" fill="#FBBEBE"/>
<path opacity="0.1" d="M101.528 80.6469C101.602 81.292 102.228 81.717 102.825 81.9723L99.0459 83.1767C99.2898 82.7097 99.093 82.1386 98.8508 81.6649C98.6536 81.2898 98.4287 80.9299 98.1781 80.5882C98.1411 80.5361 98.0991 80.4706 98.126 80.4101C98.15 80.3706 98.1877 80.3413 98.2319 80.3278C99.0089 79.9817 99.8095 79.6239 100.659 79.498C100.904 79.4627 101.369 79.3653 101.552 79.6139C101.735 79.8625 101.493 80.3496 101.528 80.6469Z" fill="black"/>
<path d="M99.3318 81.1694C100.968 81.1694 102.295 79.8443 102.295 78.2096C102.295 76.575 100.968 75.2498 99.3318 75.2498C97.6952 75.2498 96.3684 76.575 96.3684 78.2096C96.3684 79.8443 97.6952 81.1694 99.3318 81.1694Z" fill="#FBBEBE"/>
<path d="M96.7636 102.567C97.0512 102.911 97.5574 102.978 97.9997 102.903C99.0341 102.735 99.88 101.974 100.892 101.7C102.134 101.364 103.447 101.796 104.619 102.325C105.792 102.854 106.957 103.501 108.239 103.591C107.08 101.011 107.743 97.9069 106.634 95.3049C106.363 94.6682 105.985 94.0551 105.924 93.3664C105.849 92.5113 106.276 91.6866 106.342 90.8366C106.402 90.079 106.173 89.3248 105.955 88.6025C105.685 87.7155 105.414 86.8286 105.144 85.9417C104.841 84.9489 104.53 83.9394 103.943 83.086C103.726 82.7719 103.661 82.1353 103.331 81.9454C102.611 81.5305 101.52 82.0529 100.739 82.0815C99.9591 82.1101 99.2477 82.6644 98.7919 83.291C98.3092 83.9528 98.0351 84.7406 97.7828 85.52C97.3811 86.6806 97.0812 87.8738 96.8864 89.0863C96.8611 89.2677 96.8393 89.4491 96.8225 89.6322C96.6543 91.3573 96.8998 93.0926 96.9133 94.8261V94.8379C96.9301 97.0367 96.5769 99.2221 96.5113 101.419C96.5046 101.821 96.5147 102.259 96.7636 102.567Z" fill="#2F2E41"/>
<path opacity="0.1" d="M96.9183 94.8278C97.4985 94.6816 98.0233 94.307 98.474 93.8972C98.8644 93.5482 99.2111 93.1534 99.5066 92.7213C99.8787 92.1404 100.178 91.5158 100.396 90.8618C101.019 89.1125 101.415 87.2908 101.574 85.4411C101.617 84.9371 101.631 84.3962 101.33 83.9965C101.161 83.7799 100.923 83.6268 100.656 83.5622C100.389 83.4975 100.108 83.525 99.8581 83.6403C99.4612 83.8335 99.2039 84.2249 98.9651 84.5995C98.4925 85.342 98.0165 86.0945 97.7121 86.921C97.5776 87.2872 97.4784 87.6635 97.3472 88.0313C97.2138 88.3942 97.0599 88.7492 96.8864 89.0946C96.8611 89.276 96.8393 89.4575 96.8224 89.6406C96.666 91.3657 96.9049 93.0942 96.9183 94.8278Z" fill="black"/>
<path d="M101.321 83.6723C101.623 84.0721 101.609 84.618 101.567 85.1152C101.408 86.965 101.013 88.7868 100.39 90.536C100.173 91.1955 99.8739 91.8253 99.5001 92.4106C99.204 92.8423 98.8573 93.237 98.4674 93.5865C97.8956 94.1072 97.1993 94.5725 96.424 94.5792C95.9876 94.5587 95.5578 94.465 95.1525 94.302L88.8373 92.1553C88.7734 91.7958 89.0274 91.3758 89.1468 91.0298L89.4831 90.0337C89.579 89.7582 89.69 89.4609 89.9406 89.3114C90.1912 89.1619 90.5881 89.3668 90.7966 89.5331C91.0052 89.6994 91.1633 89.9178 91.3684 90.0874C91.7569 90.41 92.2699 90.5309 92.7644 90.6418L94.1821 90.9593C94.6961 91.0999 95.2268 91.1705 95.7597 91.1692C96.1549 89.9631 96.9067 88.9015 97.3322 87.7055C97.4634 87.3393 97.5626 86.9613 97.6988 86.5951C98.0016 85.7687 98.4792 85.0178 98.9518 84.2737C99.1889 83.9008 99.4462 83.5094 99.8448 83.3145C100.095 83.1978 100.378 83.1696 100.646 83.2347C100.914 83.2997 101.153 83.4541 101.321 83.6723Z" fill="#2F2E41"/>
<path d="M100.277 78.8782C100.255 78.6835 100.194 78.4951 100.099 78.3238C100.049 78.2381 99.9735 78.1703 99.8828 78.1304C99.7921 78.0906 99.6909 78.0806 99.5942 78.1021C99.2982 78.1945 99.1989 78.6514 98.8895 78.6665C98.6809 78.6766 98.5312 78.4649 98.4657 78.2667C98.4001 78.0685 98.3648 77.8417 98.2083 77.7023C98.0994 77.621 97.9745 77.5637 97.8417 77.5343C97.1236 77.3076 96.3819 76.8893 96.1431 76.1754C96.0869 76.0304 96.0734 75.8725 96.1044 75.7201C96.2137 75.2683 96.7771 75.1322 97.206 74.9693C97.6348 74.8063 98.0469 74.5275 98.4673 74.3158C98.8878 74.1042 99.3755 73.9547 99.838 74.0622C100.073 74.1359 100.303 74.2217 100.529 74.3192C101.226 74.5611 102.078 74.4485 102.618 74.9508C102.854 75.1999 103.027 75.5017 103.123 75.831C103.499 76.8758 103.738 78.1155 103.114 79.0327C102.729 79.5988 102.356 80.2455 101.616 80.3144C100.755 80.3866 100.413 79.6072 100.277 78.8782Z" fill="#2F2E41"/>
<g opacity="0.1">
<path opacity="0.1" d="M98.9619 77.9106C98.8963 77.7124 98.861 77.4856 98.7063 77.3462C98.5974 77.2648 98.4724 77.2076 98.3396 77.1782C97.6198 76.9514 96.8798 76.5332 96.6393 75.8192C96.5845 75.674 96.5717 75.5162 96.6023 75.364C96.6188 75.2923 96.6491 75.2244 96.6914 75.1641C96.4173 75.2834 96.1785 75.4413 96.1112 75.7201C96.0803 75.8725 96.0937 76.0304 96.1499 76.1754C96.3887 76.8893 97.1304 77.3075 97.8485 77.5343C97.9813 77.5637 98.1063 77.621 98.2152 77.7023C98.3716 77.8417 98.4052 78.0668 98.4725 78.2667C98.5398 78.4666 98.6878 78.6766 98.8963 78.6665C99.1049 78.6564 99.2058 78.4666 99.3386 78.307C99.1553 78.2835 99.0225 78.0954 98.9619 77.9106Z" fill="black"/>
<path opacity="0.1" d="M102.11 79.9532C101.246 80.0322 100.904 79.246 100.765 78.522C100.746 78.3279 100.689 78.1394 100.597 77.9677C100.547 77.8821 100.471 77.8145 100.381 77.7747C100.29 77.7348 100.189 77.7247 100.092 77.7459C99.9387 77.8203 99.8098 77.9368 99.7205 78.0819C99.7976 78.0893 99.8721 78.1144 99.938 78.1552C100.004 78.1959 100.06 78.2513 100.101 78.3171C100.196 78.4884 100.256 78.6767 100.279 78.8714C100.415 79.5954 100.756 80.3832 101.624 80.3026C101.967 80.2648 102.284 80.1007 102.512 79.8423C102.385 79.9014 102.25 79.9389 102.11 79.9532Z" fill="black"/>
</g>
<path d="M136.751 111.201C139.75 111.201 142.181 110.734 142.181 110.158C142.181 109.581 139.75 109.114 136.751 109.114C133.751 109.114 131.32 109.581 131.32 110.158C131.32 110.734 133.751 111.201 136.751 111.201Z" fill="#7052CC"/>
<path d="M136.66 110.541C137.009 110.541 137.292 110.171 137.292 109.714C137.292 109.258 137.009 108.888 136.66 108.888C136.311 108.888 136.028 109.258 136.028 109.714C136.028 110.171 136.311 110.541 136.66 110.541Z" fill="#3F3D56"/>
<path d="M136.66 109.529C137.009 109.529 137.292 109.159 137.292 108.703C137.292 108.246 137.009 107.876 136.66 107.876C136.311 107.876 136.028 108.246 136.028 108.703C136.028 109.159 136.311 109.529 136.66 109.529Z" fill="#3F3D56"/>
<path d="M136.66 108.52C137.009 108.52 137.292 108.15 137.292 107.693C137.292 107.237 137.009 106.867 136.66 106.867C136.311 106.867 136.028 107.237 136.028 107.693C136.028 108.15 136.311 108.52 136.66 108.52Z" fill="#3F3D56"/>
<path d="M136.66 107.509C137.009 107.509 137.292 107.139 137.292 106.682C137.292 106.226 137.009 105.856 136.66 105.856C136.311 105.856 136.028 106.226 136.028 106.682C136.028 107.139 136.311 107.509 136.66 107.509Z" fill="#3F3D56"/>
<path d="M136.66 106.497C137.009 106.497 137.292 106.127 137.292 105.671C137.292 105.214 137.009 104.844 136.66 104.844C136.311 104.844 136.028 105.214 136.028 105.671C136.028 106.127 136.311 106.497 136.66 106.497Z" fill="#3F3D56"/>
<path d="M136.66 105.488C137.009 105.488 137.292 105.118 137.292 104.661C137.292 104.205 137.009 103.835 136.66 103.835C136.311 103.835 136.028 104.205 136.028 104.661C136.028 105.118 136.311 105.488 136.66 105.488Z" fill="#3F3D56"/>
<path d="M136.66 104.477C137.009 104.477 137.292 104.107 137.292 103.65C137.292 103.194 137.009 102.824 136.66 102.824C136.311 102.824 136.028 103.194 136.028 103.65C136.028 104.107 136.311 104.477 136.66 104.477Z" fill="#3F3D56"/>
<path d="M139.026 96.7411C139.113 96.6312 139.191 96.5156 139.262 96.395L137.6 96.1229L139.398 96.1347C139.57 95.7598 139.663 95.3541 139.673 94.942C139.683 94.5299 139.609 94.1202 139.455 93.7376L137.043 94.9874L139.267 93.3546C139.058 92.9959 138.778 92.6839 138.443 92.4381C138.109 92.1922 137.727 92.0177 137.322 91.9255C136.917 91.8333 136.498 91.8252 136.09 91.9019C135.681 91.9786 135.293 92.1383 134.95 92.3712C134.606 92.604 134.314 92.9051 134.092 93.2555C133.869 93.6059 133.722 93.9983 133.658 94.4082C133.594 94.8181 133.615 95.2367 133.72 95.638C133.825 96.0394 134.012 96.4148 134.268 96.7411C134.133 96.9117 134.017 97.0964 133.922 97.292L136.08 98.4125L133.779 97.6414C133.618 98.1175 133.579 98.626 133.664 99.1211C133.75 99.6161 133.957 100.082 134.268 100.477C133.918 100.923 133.699 101.459 133.639 102.023C133.578 102.587 133.678 103.156 133.926 103.667C134.175 104.177 134.562 104.607 135.043 104.908C135.525 105.209 136.081 105.368 136.649 105.368C137.217 105.368 137.773 105.209 138.255 104.908C138.736 104.607 139.123 104.177 139.372 103.667C139.62 103.156 139.72 102.587 139.659 102.023C139.599 101.459 139.38 100.923 139.03 100.477C139.45 99.9438 139.678 99.285 139.678 98.6065C139.678 97.9279 139.45 97.2691 139.03 96.736L139.026 96.7411Z" fill="#7052CC"/>
<path opacity="0.1" d="M133.616 98.6057C133.615 99.2852 133.845 99.9447 134.268 100.477C133.917 100.923 133.699 101.459 133.639 102.023C133.578 102.587 133.678 103.156 133.926 103.667C134.175 104.177 134.562 104.607 135.043 104.908C135.524 105.209 136.081 105.368 136.649 105.368C137.217 105.368 137.773 105.209 138.255 104.908C138.736 104.607 139.123 104.177 139.372 103.667C139.62 103.156 139.719 102.587 139.659 102.023C139.598 101.459 139.38 100.923 139.03 100.477C139.431 99.9613 133.616 98.2664 133.616 98.6057Z" fill="black"/>
<path d="M24.9616 132C29.2798 132 32.7804 131.328 32.7804 130.498C32.7804 129.669 29.2798 128.997 24.9616 128.997C20.6434 128.997 17.1428 129.669 17.1428 130.498C17.1428 131.328 20.6434 132 24.9616 132Z" fill="#7052CC"/>
<path d="M24.8305 131.051C25.333 131.051 25.7404 130.518 25.7404 129.86C25.7404 129.202 25.333 128.669 24.8305 128.669C24.328 128.669 23.9207 129.202 23.9207 129.86C23.9207 130.518 24.328 131.051 24.8305 131.051Z" fill="#3F3D56"/>
<path d="M24.8305 129.596C25.333 129.596 25.7404 129.063 25.7404 128.405C25.7404 127.747 25.333 127.214 24.8305 127.214C24.328 127.214 23.9207 127.747 23.9207 128.405C23.9207 129.063 24.328 129.596 24.8305 129.596Z" fill="#3F3D56"/>
<path d="M24.8305 128.142C25.333 128.142 25.7404 127.608 25.7404 126.951C25.7404 126.293 25.333 125.76 24.8305 125.76C24.328 125.76 23.9207 126.293 23.9207 126.951C23.9207 127.608 24.328 128.142 24.8305 128.142Z" fill="#3F3D56"/>
<path d="M24.8305 126.687C25.333 126.687 25.7404 126.154 25.7404 125.496C25.7404 124.838 25.333 124.305 24.8305 124.305C24.328 124.305 23.9207 124.838 23.9207 125.496C23.9207 126.154 24.328 126.687 24.8305 126.687Z" fill="#3F3D56"/>
<path d="M24.8305 125.232C25.333 125.232 25.7404 124.699 25.7404 124.041C25.7404 123.383 25.333 122.85 24.8305 122.85C24.328 122.85 23.9207 123.383 23.9207 124.041C23.9207 124.699 24.328 125.232 24.8305 125.232Z" fill="#3F3D56"/>
<path d="M24.8305 123.776C25.333 123.776 25.7404 123.243 25.7404 122.585C25.7404 121.927 25.333 121.394 24.8305 121.394C24.328 121.394 23.9207 121.927 23.9207 122.585C23.9207 123.243 24.328 123.776 24.8305 123.776Z" fill="#3F3D56"/>
<path d="M24.8305 122.321C25.333 122.321 25.7404 121.788 25.7404 121.13C25.7404 120.472 25.333 119.939 24.8305 119.939C24.328 119.939 23.9207 120.472 23.9207 121.13C23.9207 121.788 24.328 122.321 24.8305 122.321Z" fill="#3F3D56"/>
<path d="M28.2378 111.176C28.361 111.015 28.4733 110.847 28.5742 110.672L26.1826 110.279L28.7693 110.299C29.0172 109.759 29.1524 109.175 29.1665 108.581C29.1807 107.988 29.0736 107.397 28.8517 106.847L25.3838 108.651L28.5792 106.299C28.28 105.781 27.877 105.329 27.3953 104.973C26.9136 104.617 26.3637 104.364 25.7797 104.23C25.1958 104.095 24.5903 104.083 24.0013 104.192C23.4122 104.302 22.852 104.532 22.3558 104.867C21.8596 105.203 21.438 105.637 21.1172 106.143C20.7965 106.648 20.5835 107.214 20.4916 107.806C20.3996 108.397 20.4307 109.001 20.5829 109.58C20.735 110.159 21.005 110.7 21.376 111.171C21.1796 111.416 21.0104 111.682 20.8714 111.963L23.9778 113.576L20.6663 112.466C20.4342 113.154 20.3781 113.89 20.5033 114.605C20.6284 115.321 20.9307 115.994 21.3827 116.563C20.8767 117.205 20.5619 117.977 20.4743 118.79C20.3868 119.602 20.5299 120.423 20.8875 121.159C21.245 121.894 21.8025 122.514 22.4962 122.948C23.1899 123.381 23.9918 123.611 24.8103 123.611C25.6287 123.611 26.4306 123.381 27.1243 122.948C27.818 122.514 28.3755 121.894 28.733 121.159C29.0906 120.423 29.2338 119.602 29.1462 118.79C29.0586 117.977 28.7438 117.205 28.2378 116.563C28.8426 115.795 29.1714 114.847 29.1714 113.87C29.1714 112.893 28.8426 111.945 28.2378 111.177V111.176Z" fill="#7052CC"/>
<path opacity="0.1" d="M20.4492 113.875C20.4494 114.85 20.7782 115.797 21.3826 116.563C20.8766 117.205 20.5618 117.977 20.4743 118.79C20.3867 119.602 20.5299 120.423 20.8874 121.159C21.245 121.894 21.8025 122.514 22.4962 122.948C23.1899 123.381 23.9918 123.611 24.8102 123.611C25.6286 123.611 26.4305 123.381 27.1242 122.948C27.8179 122.514 28.3754 121.894 28.733 121.159C29.0905 120.423 29.2337 119.602 29.1461 118.79C29.0585 117.977 28.7438 117.205 28.2377 116.563C28.818 115.82 20.4492 113.379 20.4492 113.875Z" fill="black"/>
</g>
<defs>
<linearGradient id="paint0_linear_46_2036" x1="101.226" y1="128.731" x2="99.0053" y2="73.6124" gradientUnits="userSpaceOnUse">
<stop stop-color="#808080" stop-opacity="0.25"/>
<stop offset="0.54" stop-color="#808080" stop-opacity="0.12"/>
<stop offset="1" stop-color="#808080" stop-opacity="0.1"/>
</linearGradient>
<clipPath id="clip0_46_2036">
<rect width="172" height="132" fill="white"/>
</clipPath>
</defs>
</svg>
